<svg width="2312" height="1066" viewBox="0 0 2312 1066" fill="none" xmlns="http://www.w3.org/2000/svg">
<g clip-path="url(#clip0_32_270)">
<path d="M2210.69 709.101C2250.61 437.316 2026.97 298.851 1954.96 270.89C1811.16 -0.894719 1463.17 13.5334 1371.7 71.022C1271.85 -0.894724 1211.69 3.91631e-05 1156 3.91631e-05C1100.31 3.91631e-05 1040.15 -0.894724 940.298 71.022C848.829 13.5334 500.732 -0.894719 356.931 270.89C285.03 298.851 61.2775 437.428 101.197 709.101C-34.6645 759.767 -15.9904 972.833 53.2264 1066.11H2258.55C2327.77 972.833 2346.44 759.767 2210.58 709.101H2210.69ZM164.376 729.345C164.152 730.911 163.593 732.365 163.034 733.931C162.475 735.385 161.692 736.727 160.798 738.069C159.903 739.411 158.897 740.641 157.779 741.76C156.66 742.878 155.43 743.997 154.088 744.779C152.747 745.674 151.293 746.457 149.839 747.016C148.386 747.576 146.82 748.023 145.255 748.359C143.689 748.694 142.124 748.806 140.446 748.806C138.769 748.806 137.315 748.694 135.638 748.359C134.073 748.023 132.619 747.576 131.053 747.016C129.6 746.457 128.258 745.674 126.916 744.779C125.574 743.885 124.344 742.878 123.226 741.76C122.108 740.641 121.101 739.411 120.207 738.069C119.312 736.727 118.641 735.385 117.97 733.931C117.411 732.365 116.964 730.911 116.629 729.345C116.405 727.779 116.181 726.213 116.181 724.535C116.181 718.16 118.753 711.897 123.338 707.311C128.929 701.719 137.427 699.147 145.255 700.712C146.82 700.936 148.386 701.383 149.839 702.055C151.293 702.614 152.747 703.397 154.088 704.291C155.43 705.186 156.66 706.193 157.779 707.311C162.251 711.897 164.935 718.16 164.935 724.535C164.935 726.101 164.711 727.667 164.376 729.345ZM238.401 748.918C224.983 748.918 214.136 737.957 214.136 724.535C214.136 711.114 225.094 700.153 238.401 700.153C251.708 700.153 262.778 711.002 262.778 724.535C262.778 738.069 251.931 748.918 238.401 748.918ZM360.174 729.345C359.838 730.911 359.391 732.365 358.832 733.931C358.273 735.385 357.49 736.727 356.595 738.069C355.701 739.411 354.694 740.641 353.576 741.76C352.458 742.878 351.228 743.997 349.886 744.779C348.656 745.674 347.202 746.457 345.749 747.016C344.295 747.576 342.73 748.023 341.164 748.359C339.599 748.694 338.033 748.806 336.356 748.806C334.679 748.806 333.225 748.694 331.548 748.359C329.982 748.023 328.417 747.576 326.963 747.016C325.509 746.457 324.167 745.674 322.826 744.779C321.484 743.885 320.254 742.878 319.135 741.76C318.017 740.641 317.011 739.411 316.116 738.069C315.222 736.727 314.439 735.385 313.88 733.931C313.321 732.365 312.874 730.911 312.538 729.345C312.203 727.779 312.091 726.213 312.091 724.535C312.091 718.16 314.663 711.897 319.247 707.311C320.366 706.193 321.596 705.186 322.937 704.291C324.279 703.397 325.621 702.614 327.075 702.055C328.528 701.383 330.094 700.936 331.659 700.712C339.599 699.147 347.985 701.719 353.576 707.311C358.161 711.897 360.733 718.16 360.733 724.535C360.733 726.101 360.621 727.667 360.285 729.345H360.174ZM415.525 312.049C414.407 313.168 413.177 314.174 411.835 315.069C410.493 315.964 409.151 316.635 407.697 317.306C406.132 317.865 404.678 318.312 403.113 318.648C401.547 318.984 399.982 319.095 398.304 319.095C391.931 319.095 385.669 316.523 381.084 311.937C376.499 307.352 373.928 301.2 373.928 294.713C373.928 293.147 374.039 291.47 374.375 289.904C374.71 288.338 375.158 286.772 375.717 285.318C376.276 283.864 377.059 282.41 377.953 281.068C378.848 279.726 379.854 278.495 380.972 277.377C386.563 271.785 394.95 269.1 402.889 270.666C404.455 271.002 406.02 271.449 407.474 272.12C408.927 272.68 410.269 273.462 411.611 274.357C412.953 275.252 414.183 276.259 415.301 277.377C416.419 278.495 417.538 279.726 418.32 281.068C419.103 282.41 419.998 283.864 420.557 285.318C421.116 286.772 421.563 288.338 421.899 289.904C422.234 291.47 422.346 293.035 422.346 294.713C422.346 301.088 419.774 307.352 415.189 311.937L415.525 312.049ZM502.409 359.695C497.825 367.077 489.885 371.104 481.723 371.104C477.25 371.104 472.889 369.873 468.863 367.413C457.457 360.366 453.991 345.379 461.148 333.859C468.192 322.451 483.176 318.984 494.694 326.03C506.099 333.188 509.566 348.175 502.521 359.583L502.409 359.695ZM582.361 416.065C577.776 420.539 571.514 423.112 565.141 423.112C563.575 423.112 562.01 423 560.444 422.664C558.879 422.329 557.313 421.881 555.859 421.322C554.294 420.763 552.952 419.98 551.61 419.085C550.268 418.191 549.038 417.184 547.92 416.065C543.336 411.48 540.764 405.216 540.764 398.841C540.764 397.275 540.987 395.71 541.211 394.032C541.546 392.466 541.994 391.012 542.553 389.446C543.224 387.992 543.895 386.65 544.789 385.308C545.684 383.966 546.69 382.735 547.808 381.617C548.927 380.499 550.157 379.38 551.498 378.597C552.84 377.814 554.182 376.92 555.748 376.36C557.201 375.801 558.767 375.354 560.22 375.018C563.351 374.459 566.594 374.459 569.725 375.018C571.291 375.354 572.856 375.801 574.31 376.36C575.875 376.92 577.217 377.702 578.559 378.597C579.901 379.492 581.131 380.499 582.249 381.617C583.367 382.735 584.374 383.966 585.268 385.308C586.163 386.65 586.834 387.992 587.505 389.446C588.064 391.012 588.511 392.466 588.846 394.032C589.07 395.598 589.294 397.164 589.294 398.841C589.294 405.216 586.61 411.48 582.137 416.065H582.361ZM934.484 122.918C930.011 118.333 927.439 112.069 927.439 105.694C927.439 104.128 927.551 102.451 927.886 100.885C928.222 99.3189 928.669 97.753 929.228 96.299C929.787 94.7332 930.57 93.3911 931.464 92.0489C932.359 90.7068 933.365 89.4765 934.484 88.358C940.186 82.7657 948.573 80.0815 956.512 81.6473C958.078 81.9828 959.531 82.4302 961.097 82.9894C962.55 83.6605 963.892 84.3316 965.234 85.2263C966.576 86.1211 967.806 87.1277 968.924 88.2462C970.042 89.3646 971.161 90.5949 971.943 91.9371C972.838 93.2792 973.621 94.6214 974.18 96.1872C974.739 97.6412 975.186 99.207 975.522 100.773C975.857 102.339 975.969 103.905 975.969 105.582C975.969 111.957 973.397 118.221 968.812 122.806C967.694 123.925 966.464 124.932 965.122 125.826C963.781 126.721 962.439 127.392 960.985 128.063C959.42 128.622 957.966 129.07 956.4 129.405C954.835 129.629 953.269 129.853 951.592 129.853C949.915 129.853 948.461 129.629 946.784 129.405C945.218 129.07 943.653 128.622 942.199 128.063C940.746 127.392 939.292 126.721 937.95 125.826C936.608 124.932 935.378 123.925 934.26 122.806L934.484 122.918ZM941.752 180.966C939.18 167.768 947.79 155.018 960.985 152.446C974.18 149.873 986.927 158.485 989.499 171.571C992.071 184.769 983.461 197.631 970.378 200.204C968.812 200.539 967.247 200.651 965.57 200.651C954.164 200.651 943.988 192.598 941.752 180.966ZM996.768 264.067C995.649 265.186 994.419 266.192 993.077 267.087C991.736 267.982 990.394 268.765 988.828 269.324C987.375 269.995 985.809 270.443 984.244 270.666C982.678 271.002 981.113 271.225 979.435 271.225C977.758 271.225 976.304 271.002 974.627 270.666C973.062 270.443 971.608 269.883 970.154 269.324C968.589 268.765 967.247 267.982 965.905 267.087C964.563 266.192 963.333 265.186 962.215 264.067C957.63 259.482 955.059 253.218 955.059 246.843C955.059 245.277 955.282 243.711 955.506 242.034C955.841 240.468 956.289 239.014 956.848 237.448C957.519 235.994 958.189 234.652 959.084 233.31C959.979 231.968 960.985 230.737 962.103 229.619C963.221 228.501 964.451 227.382 965.793 226.599C967.135 225.704 968.477 224.921 970.042 224.362C971.496 223.803 973.062 223.356 974.515 223.02C977.646 222.461 980.889 222.461 984.02 223.02C985.586 223.356 987.151 223.803 988.605 224.362C990.17 224.921 991.512 225.704 992.854 226.599C994.196 227.494 995.426 228.501 996.544 229.619C997.662 230.737 998.669 231.968 999.563 233.31C1000.46 234.652 1001.13 235.994 1001.8 237.448C1002.36 239.014 1002.81 240.468 1003.14 242.034C1003.36 243.6 1003.59 245.165 1003.59 246.843C1003.59 253.218 1000.9 259.482 996.432 264.067H996.768ZM1356.38 251.653C1356.05 253.218 1355.6 254.784 1355.04 256.238C1354.48 257.692 1353.7 259.146 1352.8 260.488C1351.91 261.83 1350.9 263.061 1349.78 264.179C1348.67 265.298 1347.44 266.304 1346.09 267.199C1344.75 268.094 1343.41 268.877 1341.96 269.436C1340.39 270.107 1338.94 270.554 1337.37 270.778C1335.81 271.114 1334.24 271.337 1332.56 271.337C1330.89 271.337 1329.43 271.114 1327.76 270.778C1326.19 270.554 1324.63 269.995 1323.17 269.436C1321.72 268.877 1320.26 268.094 1318.92 267.199C1317.58 266.304 1316.35 265.298 1315.23 264.179C1310.76 259.594 1308.19 253.33 1308.19 246.955C1308.19 245.389 1308.3 243.823 1308.63 242.146C1308.97 240.58 1309.42 239.126 1309.98 237.56C1310.54 236.106 1311.32 234.764 1312.21 233.422C1313.11 232.08 1314.11 230.849 1315.23 229.731C1320.94 224.027 1329.32 221.454 1337.26 223.02C1338.83 223.356 1340.28 223.803 1341.85 224.362C1343.3 224.921 1344.64 225.704 1345.98 226.599C1347.32 227.494 1348.55 228.501 1349.67 229.619C1350.79 230.737 1351.91 231.968 1352.69 233.31C1353.59 234.652 1354.37 235.994 1354.93 237.448C1355.49 239.014 1355.93 240.468 1356.27 242.034C1356.61 243.6 1356.72 245.165 1356.72 246.843C1356.72 248.521 1356.61 249.975 1356.27 251.653H1356.38ZM1370.25 180.966C1368.01 192.598 1357.84 200.651 1346.43 200.651C1344.86 200.651 1343.3 200.427 1341.73 200.204C1328.54 197.631 1319.93 184.769 1322.5 171.571C1325.07 158.373 1337.93 149.873 1351.13 152.446C1364.32 155.018 1372.82 167.88 1370.25 180.966ZM1377.4 122.918C1376.29 124.037 1375.06 125.043 1373.71 125.938C1372.37 126.833 1371.03 127.504 1369.47 128.175C1368.01 128.734 1366.45 129.182 1364.88 129.517C1363.32 129.741 1361.75 129.965 1360.18 129.965C1358.62 129.965 1356.94 129.741 1355.38 129.517C1353.81 129.182 1352.24 128.734 1350.79 128.175C1349.34 127.504 1347.88 126.833 1346.54 125.938C1345.2 125.043 1343.97 124.037 1342.85 122.918C1338.38 118.333 1335.7 112.069 1335.7 105.694C1335.7 104.128 1335.92 102.451 1336.25 100.885C1336.48 99.3189 1337.04 97.753 1337.6 96.299C1338.16 94.7332 1338.94 93.3911 1339.83 92.0489C1340.73 90.7068 1341.73 89.4765 1342.85 88.358C1347.44 83.8842 1353.59 81.1999 1360.07 81.1999C1366.56 81.1999 1372.71 83.8842 1377.29 88.358C1378.41 89.4765 1379.42 90.7068 1380.31 92.0489C1381.21 93.3911 1381.88 94.7332 1382.55 96.299C1383.11 97.753 1383.55 99.3189 1383.89 100.885C1384.11 102.451 1384.34 104.016 1384.34 105.694C1384.34 112.069 1381.77 118.333 1377.18 122.918H1377.4ZM1764.08 416.065C1762.96 417.184 1761.73 418.191 1760.39 419.085C1759.05 419.98 1757.71 420.763 1756.25 421.322C1754.8 421.881 1753.23 422.329 1751.67 422.664C1750.1 423 1748.54 423.112 1746.86 423.112C1745.18 423.112 1743.73 423 1742.05 422.664C1740.49 422.329 1738.92 421.881 1737.47 421.322C1736.01 420.763 1734.56 419.98 1733.33 419.085C1731.99 418.191 1730.65 417.184 1729.53 416.065C1725.05 411.48 1722.48 405.216 1722.48 398.841C1722.48 397.275 1722.59 395.71 1722.93 394.032C1723.27 392.466 1723.71 391.012 1724.27 389.446C1724.83 387.992 1725.61 386.65 1726.51 385.308C1727.4 383.966 1728.41 382.735 1729.53 381.617C1734.11 377.031 1740.37 374.459 1746.75 374.459C1753.12 374.459 1759.38 377.031 1763.97 381.617C1765.09 382.735 1766.2 383.966 1766.99 385.308C1767.88 386.65 1768.66 387.992 1769.22 389.446C1769.78 391.012 1770.23 392.466 1770.57 394.032C1770.9 395.598 1771.01 397.164 1771.01 398.841C1771.01 405.216 1768.44 411.48 1763.86 416.065H1764.08ZM1843.14 367.413C1839.11 369.873 1834.64 371.104 1830.28 371.104C1822.11 371.104 1814.18 367.077 1809.59 359.695C1802.43 348.287 1805.9 333.3 1817.31 326.142C1828.71 319.095 1843.7 322.563 1850.85 333.971C1857.9 345.379 1854.43 360.366 1843.02 367.525L1843.14 367.413ZM1930.8 312.049C1926.22 316.635 1919.96 319.207 1913.58 319.207C1911.91 319.207 1910.34 319.095 1908.78 318.76C1907.21 318.424 1905.76 317.977 1904.19 317.418C1902.74 316.747 1901.4 316.076 1900.05 315.181C1898.71 314.286 1897.48 313.279 1896.36 312.161C1891.78 307.575 1889.21 301.424 1889.21 294.937C1889.21 293.371 1889.32 291.693 1889.65 290.127C1889.99 288.562 1890.44 286.996 1891 285.542C1891.67 284.088 1892.34 282.634 1893.23 281.292C1894.13 279.949 1895.13 278.719 1896.25 277.601C1897.37 276.482 1898.6 275.476 1899.94 274.581C1901.28 273.686 1902.63 273.015 1904.08 272.344C1905.64 271.673 1907.1 271.225 1908.66 270.89C1916.6 269.324 1924.99 271.897 1930.69 277.601C1931.81 278.719 1932.82 279.949 1933.71 281.292C1934.61 282.634 1935.28 284.088 1935.95 285.542C1936.62 286.996 1937.07 288.562 1937.4 290.127C1937.62 291.693 1937.85 293.259 1937.85 294.937C1937.85 301.312 1935.17 307.575 1930.69 312.161L1930.8 312.049ZM1999.57 729.345C1999.35 730.911 1998.9 732.365 1998.23 733.931C1997.67 735.385 1996.89 736.727 1996 738.069C1995.1 739.411 1994.09 740.641 1992.98 741.76C1991.86 742.878 1990.63 743.997 1989.29 744.779C1987.94 745.562 1986.49 746.457 1985.04 747.016C1983.58 747.576 1982.02 748.023 1980.45 748.359C1978.89 748.694 1977.32 748.806 1975.64 748.806C1973.97 748.806 1972.51 748.694 1970.84 748.359C1969.27 748.023 1967.82 747.576 1966.25 747.016C1964.8 746.457 1963.46 745.674 1962.11 744.779C1960.77 743.885 1959.54 742.878 1958.42 741.76C1957.31 740.641 1956.19 739.411 1955.4 738.069C1954.51 736.727 1953.73 735.385 1953.17 733.931C1952.61 732.365 1952.16 730.911 1951.83 729.345C1951.49 727.779 1951.38 726.213 1951.38 724.535C1951.38 718.16 1953.95 711.897 1958.54 707.311C1963.12 702.726 1969.27 700.153 1975.76 700.153C1982.24 700.153 1988.39 702.837 1992.98 707.311C1997.45 711.897 2000.13 718.16 2000.13 724.535C2000.13 726.101 1999.91 727.667 1999.57 729.345ZM2073.6 748.918C2060.18 748.918 2049.33 737.957 2049.33 724.535C2049.33 711.114 2060.18 700.153 2073.6 700.153C2087.02 700.153 2097.98 711.002 2097.98 724.535C2097.98 738.069 2087.13 748.918 2073.6 748.918ZM2195.37 729.345C2195.04 730.911 2194.59 732.365 2194.03 733.931C2193.47 735.385 2192.69 736.727 2191.79 738.069C2190.9 739.411 2189.89 740.641 2188.77 741.76C2187.66 742.878 2186.43 743.997 2185.08 744.779C2183.74 745.674 2182.4 746.457 2180.95 747.016C2179.49 747.576 2177.93 748.023 2176.36 748.359C2174.8 748.694 2173.23 748.806 2171.55 748.806C2169.88 748.806 2168.42 748.694 2166.75 748.359C2165.18 748.023 2163.61 747.576 2162.16 747.016C2160.71 746.457 2159.25 745.674 2158.02 744.779C2156.68 743.885 2155.45 742.878 2154.33 741.76C2153.21 740.641 2152.1 739.411 2151.31 738.069C2150.42 736.727 2149.64 735.385 2149.08 733.931C2148.52 732.365 2148.07 730.911 2147.74 729.345C2147.4 727.779 2147.29 726.213 2147.29 724.535C2147.29 718.16 2149.86 711.897 2154.44 707.311C2155.56 706.193 2156.79 705.186 2158.02 704.291C2159.36 703.397 2160.82 702.614 2162.27 702.055C2163.73 701.383 2165.29 700.936 2166.86 700.712C2169.99 700.041 2173.23 700.041 2176.36 700.712C2177.93 700.936 2179.49 701.383 2180.95 702.055C2182.4 702.614 2183.74 703.397 2185.08 704.291C2186.43 705.186 2187.66 706.193 2188.77 707.311C2193.36 711.897 2195.93 718.16 2195.93 724.535C2195.93 726.101 2195.82 727.667 2195.48 729.345H2195.37Z" fill="#E22A00"/>
<path d="M607.856 598.15C606.514 591.999 610.651 585.288 617.025 583.051C635.699 576.34 657.28 561.241 668.686 546.701C672.935 541.444 680.092 539.99 685.459 543.905C691.274 548.155 692.951 556.208 688.814 561.8C674.836 580.255 646.881 599.268 622.281 607.321C615.907 609.558 609.198 605.084 607.744 598.15H607.856ZM677.184 605.42C677.184 598.709 682.999 593.676 689.708 594.571C744.165 599.604 750.651 571.643 731.641 548.155C716.881 529.477 672.712 527.464 689.708 477.692C691.945 470.982 699.213 467.403 706.146 469.304C712.296 471.205 715.651 477.916 713.638 484.627C701.673 520.977 736.785 501.963 759.149 545.583C778.941 593.676 749.42 624.657 689.037 619.401C682.105 618.841 676.737 612.69 677.073 605.42H677.184ZM740.363 459.238C731.417 445.033 716.322 432.954 700.667 427.697C693.958 425.125 690.603 418.526 692.839 412.375C695.635 405.44 702.903 401.526 709.836 403.986C730.187 411.256 749.532 426.914 760.938 445.033C764.516 450.849 762.615 459.014 756.689 463.152C751.433 466.731 744.165 465.054 740.251 459.238H740.363ZM818.078 596.696C811.145 575.222 796.832 560.905 775.922 554.754C769.436 552.853 765.299 546.142 766.976 539.99C768.877 532.72 776.146 528.582 782.855 530.483C812.152 538.536 833.733 560.123 842.902 590.88C845.139 597.591 840.666 604.525 833.733 606.203C827.024 607.545 820.315 603.407 818.078 596.696Z" fill="white"/>
<path d="M1023.83 620.519C987.263 534.174 955.953 533.615 955.953 504.535C955.953 481.943 990.282 469.08 1018.57 405.328C1021.37 398.841 1028.86 395.821 1035.35 398.841C1041.72 401.637 1044.85 409.467 1042.05 415.842C1025.84 452.415 1009.96 470.87 991.177 491.338C977.534 506.66 977.758 506.437 992.071 522.095C1013.54 545.247 1031.99 569.629 1047.98 610.453C1050.44 617.164 1047.09 624.657 1040.71 627.454C1034 630.25 1026.51 626.894 1023.94 620.519H1023.83Z" fill="white"/>
<path d="M1322.28 624.993C1305.5 624.098 1292.98 618.506 1283.7 608.552C1279.23 603.519 1280.12 596.025 1285.38 591.216C1289.85 587.301 1296.78 587.637 1301.81 591.775C1327.53 612.69 1368.57 594.012 1363.54 564.373C1356.83 525.562 1310.2 516.055 1259.32 542.563C1259.55 561.577 1258.76 580.814 1257.09 599.045C1254.07 623.092 1238.64 630.362 1212.69 620.295C1183.4 607.992 1162.15 590.433 1201.85 554.307C1212.69 544.576 1223.87 536.188 1235.06 529.141C1234.72 512.924 1233.94 497.265 1232.49 482.502C1216.61 485.298 1200.39 487.311 1183.62 488.094C1176.91 488.43 1171.32 483.061 1171.32 476.35C1171.1 469.863 1176.35 464.383 1182.73 464.047C1198.94 463.152 1214.82 461.475 1229.69 458.455C1227.45 442.237 1224.66 427.697 1221.64 415.954C1219.96 409.467 1223.54 403.091 1230.03 401.414C1236.4 399.96 1243.44 403.651 1245.12 410.361C1248.14 421.77 1250.94 436.645 1253.17 453.086C1262.34 450.514 1271.06 447.83 1279.11 444.474C1285.26 441.902 1292.2 444.81 1294.99 450.626C1297.79 456.777 1294.99 463.712 1288.84 466.284C1278.56 470.534 1267.37 474.113 1255.86 477.133C1256.97 489.66 1258.09 503.081 1258.65 516.838C1286.83 504.535 1315.34 501.18 1340.28 507.891C1413.52 527.687 1398.09 629.243 1322.17 624.993H1322.28ZM1233.6 592.781C1234.16 585.512 1234.72 570.412 1234.95 557.55C1225.44 564.261 1217.39 571.195 1210.9 577.906C1201.18 587.637 1203.41 589.314 1210.34 592.67C1234.61 605.196 1232.71 604.413 1233.49 592.67L1233.6 592.781ZM1396.86 495.588C1392.95 500.844 1385.68 501.739 1380.42 497.825C1366.22 487.758 1348 481.607 1328.43 479.929C1321.94 479.37 1317.02 473.778 1317.25 467.403C1317.8 460.692 1323.73 455.435 1330.33 455.994C1354.37 457.672 1377.29 465.725 1394.29 478.363C1399.88 482.278 1400.77 490.107 1396.86 495.7V495.588Z" fill="white"/>
<path d="M1626.2 500.844C1623.97 530.148 1617.26 562.583 1613.35 576.34C1602.16 615.151 1576.22 625.217 1537.64 605.644C1531.83 602.512 1529.48 595.018 1532.83 588.867C1535.97 583.051 1543.23 580.814 1549.27 584.169C1584.5 602.848 1592.55 590.545 1602.39 498.608C1603.51 488.318 1603.51 469.863 1561.01 478.475C1548.15 529.365 1527.8 581.932 1502.87 619.96C1499.29 625.552 1491.68 626.894 1486.09 622.98C1481.06 619.065 1479.61 611.572 1483.3 606.203C1507 570.189 1524.67 526.793 1536.08 483.508C1524.34 485.186 1513.15 485.745 1499.18 484.627C1492.69 484.291 1487.99 478.475 1488.55 471.541C1489.34 465.166 1495.26 460.692 1501.97 460.916C1516.51 462.37 1527.13 461.81 1541.89 459.014C1545.25 442.237 1547.71 425.46 1549.5 409.578C1550.06 403.203 1555.87 398.394 1562.36 398.729C1568.84 399.289 1573.76 405.216 1573.31 411.815C1571.86 425.46 1569.4 439.777 1566.27 454.54C1624.42 447.047 1627.77 483.061 1626.09 500.956L1626.2 500.844ZM1703.36 573.544C1696.32 575.781 1689.16 571.643 1687.15 564.596C1677.08 528.023 1655.84 493.574 1635.71 472.1C1630.68 466.508 1631.24 458.455 1636.49 453.981C1642.64 448.948 1651.25 449.507 1656.28 455.435C1676.41 479.482 1702.13 525.003 1712.19 556.32C1714.77 563.031 1710.52 570.86 1703.25 573.656L1703.36 573.544Z" fill="white"/>
<path d="M1243.78 914.561C1243.78 923.173 1236.85 930.108 1228.24 930.108C1219.63 930.108 1212.36 923.173 1212.36 914.561V776.879C1212.36 763.682 1223.2 752.833 1236.4 752.833H1306.96C1320.15 752.833 1331 763.682 1331 776.879V785.268C1331 793.88 1323.84 800.814 1315.12 800.814C1306.4 800.814 1299.58 793.88 1299.58 785.268V784.037H1243.89V820.499H1301.93C1310.54 820.499 1317.8 827.434 1317.8 836.046C1317.8 844.658 1310.65 851.592 1301.93 851.592H1243.89V914.449L1243.78 914.561Z" fill="white"/>
<path d="M1407.15 927.759C1393.95 927.759 1383.11 916.91 1383.11 903.712V776.767C1383.11 763.57 1393.95 752.721 1407.15 752.721H1479.83C1493.03 752.721 1503.87 763.57 1503.87 776.767V786.162C1503.87 794.775 1496.72 801.709 1488 801.709C1479.27 801.709 1472.45 794.775 1472.45 786.162V784.037H1414.64V820.499H1478.27C1486.88 820.499 1493.81 827.433 1493.81 836.381C1493.81 845.329 1486.88 851.928 1478.27 851.928H1414.64V896.778H1472.45V894.876C1472.45 886.264 1479.38 879.33 1488 879.33C1496.61 879.33 1503.87 886.264 1503.87 894.876V903.712C1503.87 916.91 1493.03 927.759 1479.83 927.759H1407.15Z" fill="white"/>
<path d="M1600.04 927.983C1591.2 927.983 1582.82 924.404 1576.78 918.364L1565.26 906.844C1558.11 897.449 1555.65 890.962 1555.65 883.58V871.836C1555.65 863.224 1562.58 856.29 1571.19 856.29C1579.8 856.29 1587.07 863.224 1587.07 871.836C1587.07 872.06 1586.84 875.639 1586.84 875.863C1587.07 885.705 1588.07 885.258 1595.45 892.639C1595.45 892.863 1600.93 896.442 1604.29 896.442H1636.94C1640.29 896.442 1643.43 895.212 1645.55 892.863C1647.23 891.186 1649.13 889.731 1650.58 887.83C1653.71 884.251 1654.16 882.35 1654.16 879.218V873.738C1654.16 865.349 1649.58 863.448 1642.87 861.211L1577.34 839.625C1567.72 836.493 1557.66 830.789 1557.66 812.558V797.012C1557.66 788.176 1561.01 780.011 1567.28 773.748L1579.24 762.451C1585.28 756.188 1593.89 752.833 1602.72 752.833H1639.96C1648.57 752.833 1657.96 756.188 1664.22 762.451L1675.52 773.748C1681.78 780.011 1684.91 786.498 1685.13 797.012V806.407C1685.13 815.019 1678.2 821.953 1669.59 821.953C1660.98 821.953 1654.05 815.019 1654.05 806.407V801.374C1654.05 798.242 1652.59 795.11 1650.47 792.761L1645.44 787.728C1643.09 785.38 1639.96 784.149 1636.6 784.149C1628.22 784.149 1614.35 783.926 1605.63 783.926C1602.5 783.926 1600.15 784.373 1597.24 787.505C1596.24 788.959 1594.56 790.189 1592.21 792.761C1588.19 797.123 1589.08 799.696 1589.08 805.736C1589.08 808.867 1591.2 811.44 1594.11 812.446L1667.8 837.388C1677.87 840.743 1685.81 852.487 1685.81 860.652V883.692C1685.81 892.528 1682.23 900.692 1676.19 906.956L1664.67 918.476C1658.41 924.516 1650.25 928.095 1641.64 928.095H1600.15L1600.04 927.983Z" fill="white"/>
<path d="M616.131 746.457C610.316 750.036 602.712 747.576 599.917 741.201C597.345 735.049 599.917 727.555 606.067 723.865C621.163 715.252 638.718 701.272 651.019 689.752C657.392 683.936 667.792 683.936 674.501 690.311C682.887 698.14 690.715 704.515 701.002 710.108C706.593 713.463 709.053 720.174 706.817 725.99C704.581 732.141 697.648 734.602 692.057 731.582C679.756 725.095 672.265 719.279 663.319 711.45C656.61 717.266 649.341 723.193 642.073 728.786H681.21C686.801 728.786 691.274 733.259 691.274 738.852C691.274 744.444 686.801 748.582 681.21 748.582H640.396C634.805 748.582 630.332 744.109 630.332 738.852V737.174C625.524 740.53 620.827 743.661 616.131 746.345V746.457ZM689.373 908.074H638.495V915.903C638.495 922.055 633.463 927.423 627.089 927.423C620.715 927.423 615.348 922.167 615.348 915.903V777.215C615.348 768.043 623.175 760.214 632.345 760.214H687.36C696.53 760.214 704.357 768.043 704.357 777.215V828.887C704.357 838.059 696.53 845.888 687.36 845.888H638.495V854.836H691.833C697.648 854.836 702.68 859.869 702.68 866.02C702.68 872.172 697.648 876.869 691.833 876.869H638.495V886.041H689.373C695.188 886.041 700.22 891.074 700.22 896.89C700.22 902.706 695.188 907.739 689.373 907.739V908.074ZM682.328 781.129H638.495V792.538H682.328V781.129ZM638.495 825.085H682.328V813.676H638.495V825.085ZM847.599 919.594C845.698 925.746 838.653 928.542 833.398 925.41C812.711 914.449 792.583 896.89 775.251 875.974C758.478 895.771 737.232 914.002 711.29 925.41C705.475 928.206 698.431 925.075 695.97 918.699C693.734 912.883 696.53 905.837 702.68 903.041C726.721 891.633 745.954 875.08 760.826 856.625C749.421 839.848 740.14 821.729 733.989 803.498C731.753 797.123 735.331 790.077 741.481 787.616C747.632 785.156 754.341 788.511 756.242 794.551C760.714 808.755 767.088 822.736 774.916 835.934C783.526 821.729 790.011 807.189 794.149 793.209C796.05 786.834 802.759 783.478 808.686 785.715C809.468 786.051 810.586 786.61 811.146 787.169C803.094 778.221 795.826 768.491 790.794 759.767C787.775 754.51 789.676 747.464 795.491 744.444C801.082 741.424 807.791 743.326 811.369 748.694C819.42 761.556 831.161 775.202 840.666 783.031C845.922 787.281 847.934 793.88 845.698 799.472C843.126 805.288 835.97 807.861 830.602 804.17C825.235 800.591 820.203 796.117 815.283 791.307C816.96 794.104 817.519 797.794 816.401 801.373C811.146 817.815 802.2 837.723 789.341 856.737C804.101 875.415 821.992 891.633 841.561 903.377C847.152 906.732 849.612 913.778 847.375 919.594H847.599ZM752.552 743.997C758.702 747.352 760.938 754.286 757.807 760.214C749.421 775.537 738.015 789.294 723.143 800.702C717.887 804.952 710.283 803.499 706.37 797.683C703.015 792.65 704.469 785.38 709.724 781.241C720.906 772.853 730.076 761.445 737.12 749.365C740.14 743.773 746.849 741.312 752.44 744.109L752.552 743.997ZM718.446 742.543C712.073 742.543 706.705 737.51 706.705 730.799C706.705 724.088 711.961 719.055 718.446 719.055H762.615V694.449C762.615 687.738 768.207 682.146 774.916 682.146C781.625 682.146 786.881 687.738 786.881 694.449V719.055H832.391C838.765 719.055 844.133 724.312 844.133 730.799C844.133 737.286 838.877 742.543 832.391 742.543H718.335H718.446Z" fill="white"/>
<path d="M1134.08 792.09C1140.79 792.09 1146.05 797.347 1146.05 804.393C1146.05 810.769 1140.79 816.361 1134.08 816.361H1039.37V890.738C1039.37 918.699 1021.82 928.206 976.192 925.969C969.26 925.41 964.228 919.594 964.228 912.884C964.563 906.173 970.378 900.916 977.087 901.14C1009.74 902.482 1014.77 900.581 1014.77 890.85V816.473H918.94C912.231 816.473 906.976 811.216 906.976 804.505C906.976 797.794 912.231 792.202 918.94 792.202H1014.77V768.155C1014.77 761.445 1020.36 755.852 1027.07 755.852C1029.87 755.852 1032.66 756.971 1034.9 758.649C1051.67 747.464 1065.31 734.378 1075.71 719.503H953.269C946.56 719.503 940.969 714.246 940.969 707.2C940.969 700.824 946.225 695.232 953.269 695.232H1098.08C1107.25 695.232 1113.4 704.739 1109.26 712.792C1093.38 741.872 1065.43 770.057 1039.37 784.373V792.202H1134.08V792.09Z" fill="white"/>
</g>
<defs>
<clipPath id="clip0_32_270">
<rect width="2312" height="1066" fill="white"/>
</clipPath>
</defs>
</svg>
