<svg width="4127" height="356" viewBox="0 0 4127 356" fill="none" xmlns="http://www.w3.org/2000/svg">
<g clip-path="url(#clip0_32_166)">
<path d="M1020.82 208.761C1030.72 214.719 1040.14 220.433 1046.18 227.971C1059.1 244.02 1062.97 260.921 1056.57 272.958C1048.23 288.642 1023.72 295.451 987.731 292.046C982.659 291.438 977.466 293.019 973.723 296.302C969.979 299.585 967.926 304.205 967.926 309.311C967.564 320.619 975.655 330.224 986.645 331.075C993.166 331.683 999.325 331.926 1005.36 331.926C1042.68 331.926 1070.94 320.984 1085.91 300.436C1100.4 280.617 1101.25 253.626 1088.45 222.5C1073.35 192.833 1053.91 182.863 1039.78 175.568C1023.6 167.3 1014.66 162.68 1023.36 136.053C1026.38 125.597 1021.18 115.019 1011.4 111.858C1000.53 108.818 989.301 114.533 985.799 124.989C968.047 177.149 996.064 193.928 1020.7 208.761H1020.82Z" fill="#E22A00"/>
<path d="M1002.59 55.0778C1024.56 62.6161 1045.94 79.7595 1058.5 99.821C1061.64 104.563 1066.11 107.602 1071.18 108.697C1072.27 108.94 1073.47 109.061 1074.56 109.061C1078.06 109.061 1081.44 107.967 1084.34 106.022C1093.52 99.4562 1096.3 86.6898 1090.74 77.6926C1073.96 50.8224 1046.3 28.4508 1016.84 17.8729C1006.21 14.1038 994.857 19.5751 990.388 30.8825C986.886 40.6092 992.2 51.1871 1002.59 55.0778Z" fill="#E22A00"/>
<path d="M1120.93 200.007C1115.98 198.548 1110.67 199.156 1106.08 201.831C1101.13 204.627 1097.63 209.247 1096.18 214.84C1093.64 224.445 1099.92 235.023 1110.07 238.184C1139.53 246.938 1159.46 266.757 1169.24 297.396C1172.26 306.637 1180.59 312.594 1189.41 312.594C1190.74 312.594 1192.19 312.473 1193.51 312.108C1199.07 310.77 1203.78 307.245 1206.44 302.26C1208.97 297.761 1209.45 292.654 1207.88 287.913C1194.48 243.048 1163.56 211.801 1120.93 199.885V200.007Z" fill="#E22A00"/>
<path d="M878.077 312.351C880.734 313.81 883.512 314.661 886.41 314.661C888.222 314.661 890.033 314.296 891.845 313.688C927.47 301.895 967.805 274.052 987.731 247.546C990.751 243.534 991.958 238.549 991.113 233.321C990.267 227.85 987.128 222.743 982.539 219.46C974.447 213.503 962.975 215.326 956.333 223.837C940.271 244.264 909.476 266.149 883.149 275.632C873.126 279.158 866.726 289.736 868.899 299.22C869.986 304.813 873.368 309.676 878.077 312.351Z" fill="#E22A00"/>
<path d="M1420.43 188.335L1419.34 187.119C1407.19 173.663 1407.19 160.086 1419.34 146.388C1447.72 115.262 1469.46 89.2431 1492.28 37.3264C1496.63 27.2349 1491.92 15.0764 1481.9 10.6994C1477.19 8.38929 1471.88 8.14612 1466.92 10.0915C1461.97 11.9152 1457.87 15.9275 1455.69 20.7909C1433.96 70.1543 1409.68 98.2404 1391.93 118.667C1376.83 136.053 1365.97 148.576 1365.97 164.261C1365.97 183.593 1375.51 194.779 1390 211.679C1407.63 232.348 1434.44 263.474 1463.18 331.805C1465.11 336.668 1468.98 340.68 1473.81 342.747C1476.34 343.841 1479 344.328 1481.66 344.328C1484.31 344.328 1486.85 343.841 1489.39 342.747C1499.41 338.37 1504.48 326.455 1500.62 316.12C1478.03 258.003 1452.31 223.108 1420.43 188.578V188.335Z" fill="#E22A00"/>
<path d="M2001.79 124.989C1976.79 106.508 1944.06 94.9576 1909.53 92.5259C1904.45 92.0396 1899.5 93.7417 1895.64 97.2677C1891.77 100.672 1889.48 105.414 1889 110.642C1888.51 120.734 1896.36 129.609 1906.51 130.46C1934.64 132.892 1960 141.646 1979.93 155.872C1983.43 158.425 1987.42 159.762 1991.28 159.762C1996.84 159.762 2002.27 157.209 2005.77 152.346C2012.05 143.227 2010.24 131.068 2001.79 125.111V124.989Z" fill="#E22A00"/>
<path d="M1699.76 142.011C1722.22 140.917 1744.56 138.363 1768.11 134.229C1769.92 154.534 1771.13 176.176 1771.49 198.548C1755.31 208.761 1739.49 220.798 1724.51 234.415C1700.72 256.179 1690.58 274.538 1693.36 290.709C1696.86 311.135 1720.41 323.537 1740.7 332.048C1761.11 339.951 1777.17 340.559 1788.52 333.75C1798.3 327.914 1804.34 316.607 1806.51 300.071C1809.05 273.079 1810.14 245.966 1809.77 219.704C1852.65 197.454 1895.28 192.59 1923.9 206.816C1941.17 215.448 1952.16 230.525 1955.54 250.343C1958.43 267.365 1950.34 283.292 1934.04 292.898C1917.13 302.867 1890.69 305.299 1869.91 288.277C1862.07 281.712 1851.2 281.347 1844.19 287.548C1835.86 294.964 1834.77 307.001 1841.66 314.783C1855.42 329.859 1873.78 337.884 1897.93 339.1C1900.23 339.221 1902.4 339.343 1904.57 339.343C1957.23 339.343 1986.57 303.719 1992.49 267.122C1998.53 229.673 1979.69 182.499 1924.38 167.422C1889.36 157.939 1849.51 162.072 1808.81 179.459C1807.96 160.613 1806.39 142.133 1805.06 126.083C1821.73 121.463 1837.19 116.357 1851.08 110.642C1855.79 108.697 1859.29 105.049 1861.1 100.429C1862.91 95.6871 1862.79 90.5806 1860.62 85.8388C1856.15 76.4768 1845.28 72.2213 1835.74 76.2336C1825.47 80.4891 1814 84.3798 1800.6 88.1489C1797.46 64.9262 1793.47 44.2568 1789.24 28.3292C1786.71 18.2377 1776.2 11.9153 1765.7 14.2254C1760.86 15.4412 1756.76 18.6025 1754.34 22.8579C1751.93 27.1134 1751.2 32.2199 1752.53 37.0833C1756.88 53.7404 1760.74 74.1667 1763.88 96.5382C1744.8 100.429 1723.43 102.982 1698.55 104.198C1693.6 104.441 1689.13 106.508 1685.63 110.277C1682.13 114.046 1680.44 118.788 1680.56 123.53C1680.56 128.637 1682.61 133.378 1686.23 136.904C1689.86 140.43 1694.81 142.254 1699.88 142.011H1699.76ZM1771.37 243.777C1770.89 262.866 1770.16 281.955 1769.44 291.074C1769.44 292.29 1769.32 293.505 1769.2 294.6C1768.96 298.49 1768.84 301.895 1767.75 302.503C1765.57 303.719 1756.52 298.977 1740.09 290.466L1738.64 289.736C1734.54 287.791 1731.4 286.089 1731.04 284.022C1730.67 281.712 1733.45 277.578 1739.97 271.012C1748.79 261.772 1759.66 252.41 1771.37 243.777Z" fill="#E22A00"/>
<path d="M2242.11 90.2159C2246.94 66.8716 2249.96 47.9044 2251.65 30.761C2252.5 20.3047 2244.89 10.9427 2234.5 10.0916C2224.36 9.48367 2215.3 17.3867 2214.46 27.235C2212.04 50.5793 2208.42 74.0451 2203.95 97.1462C2183.18 101.037 2168.56 101.645 2148.28 99.6995C2137.65 99.0916 2128.71 106.387 2127.38 116.478C2126.9 121.95 2128.71 127.421 2132.09 131.312C2135.23 134.837 2139.46 136.904 2144.05 137.148C2162.04 138.607 2177.26 138.242 2194.65 135.81C2177.14 201.587 2151.3 261.65 2120.02 309.433C2114.46 317.701 2116.39 329.495 2124.37 335.817C2127.63 338.127 2131.37 339.343 2135.23 339.343C2136.44 339.343 2137.65 339.343 2138.86 338.978C2143.81 338.005 2147.91 335.209 2150.69 330.954C2183.78 280.01 2213.97 206.086 2233.78 127.907C2258.9 122.922 2275.8 124.138 2284.14 131.798C2290.9 137.999 2290.9 147.118 2289.93 155.264C2281.6 234.172 2274.11 275.876 2256.36 285.359C2247.67 289.98 2236.07 287.548 2216.39 277.092C2211.8 274.538 2206.49 273.93 2201.53 275.389C2196.82 276.848 2192.84 280.131 2190.54 284.508C2188.01 289.25 2187.4 294.721 2188.97 299.706C2190.42 304.57 2193.68 308.582 2198.03 310.892C2226.89 325.604 2251.17 328.887 2270.13 320.619C2287.88 312.837 2300.8 295.086 2308.65 267.73C2314.45 247.425 2323.99 200.128 2327.13 158.79C2328.58 142.74 2327.13 120.49 2311.43 105.292C2297.06 91.4317 2273.75 86.2036 2242.11 89.9727V90.2159Z" fill="#E22A00"/>
<path d="M2369.88 92.2829C2362.15 83.2856 2348.75 82.3129 2339.21 90.0943C2335.22 93.4987 2332.8 98.2405 2332.44 103.469C2332.08 108.94 2334.01 114.411 2337.76 118.667C2363.12 145.902 2395.6 195.022 2410.94 251.072C2412.39 256.422 2416.01 261.042 2420.84 263.596C2423.74 265.176 2426.88 266.027 2430.14 266.027C2432.19 266.027 2434.13 265.663 2436.18 265.055C2447.41 260.678 2453.69 248.276 2449.95 238.063C2435.82 193.928 2399.83 128.515 2369.76 92.2829H2369.88Z" fill="#E22A00"/>
<path d="M2894.36 318.309C2867.55 302.138 2842.19 279.402 2820.81 252.531C2837 228.336 2850.52 200.25 2859.1 173.501C2860.06 170.462 2860.18 167.301 2859.7 164.383C2864.89 169.246 2870.81 174.231 2876.97 178.365C2880.83 181.04 2885.66 181.769 2890.13 180.432C2894.96 178.973 2898.95 175.447 2901 170.826C2904.5 161.951 2901.48 151.616 2893.27 145.172C2879.75 133.986 2862.96 114.29 2851.61 96.0519C2849.92 93.6202 2847.86 91.6749 2845.69 90.2158H2880.23C2890.37 90.2158 2898.59 81.9481 2898.59 71.735C2898.59 61.5219 2890.37 53.2541 2880.23 53.2541H2816.71V19.332C2816.71 8.63251 2808.25 0 2797.87 0C2787.48 0 2778.67 8.87568 2778.67 19.332V53.1325H2717.2C2711.76 53.1325 2706.93 55.4426 2703.67 59.2117C2703.91 51.9167 2700.05 44.6216 2693.29 40.4877C2678.55 32.4631 2667.56 23.3443 2655.73 12.1585C2645.7 2.43169 2630.01 2.06694 2619.98 11.3074C2604.16 26.2623 2578.92 46.8101 2555.98 60.1844C2546.56 65.7773 2542.57 77.3279 2546.56 87.1762C2548.73 92.1612 2552.72 95.8087 2557.79 97.3893C2562.62 98.8484 2567.81 98.2404 2572.16 95.5656C2578.08 92.0396 2584.12 88.1489 2590.03 84.015C2590.39 92.2828 2597.4 98.9699 2605.97 98.9699H2664.3C2673.12 98.9699 2680.36 91.918 2680.36 83.2855C2680.36 79.3948 2678.92 75.7473 2676.62 72.9508C2677.47 73.4372 2678.31 73.8019 2679.16 74.2882C2683.38 76.5984 2688.46 77.0847 2692.92 75.2609C2695.22 74.4098 2697.39 72.9508 2699.08 71.127V71.6134C2699.08 81.9481 2707.17 90.0943 2717.44 90.0943H2749.44C2746.78 91.7964 2744.49 94.2281 2742.8 97.2678C2731.93 115.992 2718.65 131.676 2704.03 142.619C2701.98 144.199 2700.41 146.145 2699.08 148.212V138.363C2699.08 124.138 2687.13 112.223 2673.12 112.223H2594.38C2580.25 112.223 2568.42 124.26 2568.42 138.363V337.884C2568.42 347.732 2576.87 356 2586.89 356C2596.92 356 2604.89 347.854 2604.89 337.884V328.279H2676.02C2679.52 328.279 2682.78 327.184 2685.56 325.361C2682.42 330.346 2681.57 336.668 2683.75 342.504C2685.68 347.611 2689.54 351.501 2694.37 353.447C2698.84 355.27 2703.67 355.027 2707.9 353.082C2741.11 338.37 2771.66 314.783 2798.71 282.928C2824.32 313.81 2852.82 338.005 2880.95 352.96C2884.94 355.27 2889.77 355.635 2894.12 353.933C2898.71 352.109 2902.21 348.34 2903.66 343.598C2907.16 334.358 2903.17 323.537 2894.6 318.309H2894.36ZM2664.18 67.1147H2613.1C2622.4 59.8197 2630.97 52.7678 2638.7 45.959C2648 54.1052 2656.45 60.7924 2666.96 67.2363C2666.11 67.1148 2665.15 66.9932 2664.3 66.9932L2664.18 67.1147ZM2817.79 100.429C2816.47 105.049 2817.07 109.791 2819.36 113.803C2825.64 124.746 2834.22 136.661 2843.88 147.969C2840.38 147.361 2836.75 147.847 2833.37 149.549C2828.9 151.738 2825.4 155.872 2823.95 160.857C2818.04 180.675 2809.34 200.493 2797.99 219.704C2787.24 201.101 2778.79 182.012 2772.75 162.923C2771.3 158.182 2767.8 154.291 2763.45 152.102C2761.16 151.008 2758.62 150.4 2756.08 150.4C2753.79 150.4 2751.62 150.887 2749.44 151.738C2748.96 151.981 2748.6 152.102 2748.11 152.346C2758.62 140.917 2767.68 128.393 2775.04 114.654C2779.63 105.9 2776.73 95.8087 2768.52 90.2158H2825.52C2821.66 92.6475 2818.88 96.1735 2817.67 100.551L2817.79 100.429ZM2699.08 169.003C2702.1 173.38 2706.69 176.298 2711.64 177.149C2716.59 177.878 2721.3 176.663 2725.29 173.501C2730.12 169.732 2734.71 165.842 2739.06 161.708C2736.76 166.328 2736.28 171.678 2737.97 176.663C2746.54 202.317 2759.71 228.458 2775.89 252.41C2753.19 280.617 2725.65 302.624 2694.13 317.701C2692.92 318.187 2691.84 318.917 2690.87 319.646C2692.44 317.093 2693.29 314.053 2693.29 310.77C2693.29 301.408 2685.44 293.384 2676.02 293.384H2604.89V283.414H2679.52C2689.06 283.414 2696.79 275.632 2696.79 266.027C2696.79 256.422 2688.94 248.276 2679.52 248.276H2604.89V238.671H2673.12C2687.25 238.671 2699.08 226.634 2699.08 212.53V168.638V169.003ZM2604.77 158.911V145.658H2664.18V158.911H2604.77ZM2604.77 205.478V192.225H2664.18V205.478H2604.77Z" fill="#E22A00"/>
<path d="M3311.36 158.06H3177.55V149.428C3214.99 128.393 3254.96 87.1762 3277.18 46.2021C3280.2 40.3661 3279.96 33.5573 3276.58 27.8429C3272.96 22.0068 3266.68 18.4808 3259.79 18.4808H3052.92C3042.3 18.4808 3033.72 26.9918 3033.72 37.448C3033.72 47.9043 3042.17 56.78 3052.92 56.78H3224.77C3210.52 76.5983 3192.04 94.2281 3169.7 109.426C3166.2 106.994 3162.21 105.779 3158.47 105.779C3148.08 105.779 3139.27 114.654 3139.27 125.111V158.06H3003.89C2993.51 158.06 2985.05 166.693 2985.05 177.392C2985.05 188.091 2993.26 196.359 3003.89 196.359H3139.27V301.652C3139.27 306.15 3138.42 308.825 3136.49 310.649C3131.78 315.147 3119.34 316.242 3086.98 314.904C3076.47 314.661 3067.29 322.929 3066.93 333.385C3066.93 344.206 3074.9 353.082 3085.65 353.933C3091.69 354.298 3097.48 354.419 3102.8 354.419C3133.83 354.419 3153.28 349.313 3164.75 338.37C3173.45 330.102 3177.67 318.066 3177.67 301.652V196.359H3311.48C3321.86 196.359 3330.32 187.848 3330.32 177.392C3330.32 166.936 3322.11 158.06 3311.48 158.06H3311.36Z" fill="#E22A00"/>
<path d="M3585.61 99.4563H3484.78C3465.94 99.4563 3450.48 115.019 3450.48 133.986V332.048C3450.48 344.449 3460.74 354.419 3473.06 354.419C3485.38 354.419 3495.28 344.449 3495.28 332.048V241.589H3578.25C3590.56 241.589 3600.83 231.619 3600.83 219.096C3600.83 206.572 3590.56 196.724 3578.25 196.724H3495.28V144.321H3574.87V146.023C3574.87 158.425 3584.77 168.395 3597.21 168.395C3609.65 168.395 3619.79 158.425 3619.79 146.023V133.986C3619.79 115.019 3604.33 99.4563 3585.49 99.4563H3585.61Z" fill="#E22A00"/>
<path d="M3832.82 102.861H3728.96C3710.12 102.861 3694.66 118.423 3694.66 137.391V320.011C3694.66 338.978 3710.12 354.541 3728.96 354.541H3832.82C3851.66 354.541 3867.12 338.978 3867.12 320.011V307.244C3867.12 294.843 3856.85 284.873 3844.53 284.873C3832.21 284.873 3822.31 294.843 3822.31 307.244V310.041H3739.71V245.479H3830.52C3842.84 245.479 3852.87 235.51 3852.87 223.108C3852.87 210.706 3842.96 200.372 3830.52 200.372H3739.71V147.969H3822.31V151.008C3822.31 163.41 3832.21 173.501 3844.53 173.501C3856.85 173.501 3867.12 163.531 3867.12 151.008V137.512C3867.12 118.545 3851.66 102.982 3832.82 102.982V102.861Z" fill="#E22A00"/>
<path d="M4101.28 223.959L3996.09 188.091C3991.99 186.754 3988.85 182.863 3988.85 178.486C3988.85 169.854 3987.52 166.085 3993.31 159.884C3996.7 156.115 3999.11 154.413 4000.56 152.224C4004.67 147.725 4008.17 146.996 4012.52 146.996C4024.83 146.996 4044.76 147.361 4056.72 147.361C4061.55 147.361 4066.01 149.063 4069.4 152.589L4076.64 159.884C4079.78 163.288 4081.83 167.787 4081.83 172.285V179.581C4081.83 191.982 4091.74 201.952 4104.18 201.952C4116.61 201.952 4126.4 191.982 4126.4 179.581V166.085C4126.03 150.887 4121.57 141.525 4112.63 132.649L4096.57 116.478C4087.63 107.481 4074.35 102.617 4061.91 102.617H4008.77C3996.09 102.617 3983.77 107.481 3975.2 116.478L3958.05 132.649C3949.11 141.646 3944.28 153.318 3944.28 166.085V188.578C3944.28 214.84 3958.65 223.108 3972.42 227.606L4066.01 258.611C4075.55 261.772 4082.08 264.447 4082.08 276.605V284.508C4082.08 289.007 4081.35 291.803 4076.88 296.91C4074.83 299.706 4072.05 301.773 4069.64 304.205C4066.5 307.609 4062.03 309.433 4057.32 309.433H4010.7C4005.87 309.433 3998.02 304.205 3998.02 303.962C3987.4 293.262 3986.07 293.992 3985.71 279.766C3985.71 279.402 3986.07 274.295 3986.07 273.93C3986.07 261.529 3975.8 251.559 3963.49 251.559C3951.17 251.559 3941.14 261.529 3941.14 273.93V290.831C3941.14 301.53 3944.53 310.892 3954.91 324.266L3971.34 340.802C3979.91 349.434 3991.87 354.662 4004.55 354.662H4063.84C4076.16 354.662 4087.87 349.434 4096.81 340.802L4113.23 324.266C4121.81 315.269 4127 303.597 4127 290.831V257.638C4127 245.966 4115.65 228.944 4101.28 224.202V223.959Z" fill="#E22A00"/>
<path d="M658.769 214.354C670.725 132.892 603.942 91.3101 582.567 82.9207C539.696 1.45898 436.08 5.71444 408.787 22.9795C379.079 1.45898 361.085 1.70215 344.541 1.70215C327.996 1.70215 310.002 1.45898 280.294 22.9795C253.001 5.71444 149.265 1.45898 106.393 82.9207C85.0181 91.3101 18.2354 132.892 30.1911 214.354C-10.2649 229.552 -4.70977 293.505 15.9409 321.47H673.14C693.791 293.505 699.346 229.552 658.89 214.354H658.769ZM49.0304 220.433C49.0304 220.433 48.7888 221.406 48.6681 221.77C48.5473 222.257 48.3058 222.622 48.0642 222.986C47.8227 223.351 47.4604 223.716 47.0981 224.081C46.7358 224.445 46.3735 224.688 46.0112 225.053C45.6489 225.296 45.1659 225.54 44.8036 225.783C44.3205 225.904 43.9582 226.148 43.4752 226.148C42.9921 226.148 42.5091 226.269 42.026 226.269C41.543 226.269 41.0599 226.269 40.5768 226.148C40.0938 226.148 39.6107 225.904 39.2484 225.783C38.7654 225.661 38.4031 225.418 38.0408 225.053C37.6785 224.81 37.3162 224.445 36.9539 224.081C36.5916 223.716 36.3501 223.351 35.9878 222.986C35.7463 222.622 35.5047 222.135 35.2632 221.77C35.1425 221.284 34.9009 220.798 34.9009 220.433C34.9009 219.947 34.7802 219.46 34.7802 218.974C34.7802 217.029 35.5047 215.205 36.9539 213.746C38.6446 212.044 41.1807 211.314 43.4752 211.801C43.9582 211.801 44.4413 212.044 44.8036 212.165C45.2867 212.287 45.6489 212.53 46.0112 212.895C46.3735 213.138 46.7358 213.503 47.0981 213.746C48.4265 215.083 49.2719 217.029 49.2719 218.974C49.2719 219.46 49.2719 219.947 49.1511 220.433H49.0304ZM71.0095 226.391C67.0242 226.391 63.7636 223.108 63.7636 219.096C63.7636 215.083 67.0242 211.801 71.0095 211.801C74.9947 211.801 78.2553 215.083 78.2553 219.096C78.2553 223.108 74.9947 226.391 71.0095 226.391ZM107.36 220.433C107.36 220.433 107.118 221.406 106.997 221.77C106.876 222.257 106.635 222.622 106.273 222.986C106.031 223.351 105.669 223.716 105.307 224.081C104.944 224.445 104.582 224.688 104.22 225.053C103.857 225.296 103.374 225.54 103.012 225.783C102.529 225.904 102.167 226.148 101.684 226.148C101.201 226.148 100.717 226.269 100.234 226.269C99.7514 226.269 99.2683 226.269 98.7852 226.148C98.3022 226.148 97.8191 225.904 97.4568 225.783C96.9738 225.661 96.6115 225.418 96.2492 225.053C95.8869 224.81 95.5246 224.445 95.1623 224.081C94.8 223.716 94.5585 223.351 94.1962 222.986C93.9547 222.622 93.7132 222.135 93.4716 221.77C93.3509 221.284 93.1093 220.798 93.1093 220.433C93.1093 219.947 92.9886 219.46 92.9886 218.974C92.9886 217.029 93.7132 215.205 95.1623 213.746C95.5246 213.381 95.8869 213.138 96.2492 212.895C96.6115 212.652 97.0945 212.408 97.4568 212.165C97.9399 211.922 98.423 211.801 98.7852 211.801C101.201 211.314 103.616 212.044 105.307 213.746C106.635 215.083 107.48 217.029 107.48 218.974C107.48 219.46 107.48 219.947 107.36 220.433ZM123.904 95.3224C123.904 95.3224 123.18 95.9303 122.817 96.295C122.455 96.5382 121.972 96.7814 121.61 97.0246C121.127 97.1461 120.644 97.3893 120.281 97.3893C119.798 97.3893 119.315 97.5109 118.832 97.5109C116.9 97.5109 115.088 96.7814 113.76 95.3224C112.432 93.9849 111.586 92.0396 111.586 90.2158C111.586 89.7295 111.586 89.2431 111.707 88.7568C111.707 88.2705 111.949 87.7841 112.069 87.4194C112.19 86.933 112.432 86.5683 112.794 86.2035C113.035 85.8388 113.398 85.474 113.76 85.1093C115.451 83.4071 117.987 82.6776 120.281 83.1639C120.764 83.1639 121.247 83.4071 121.61 83.6502C122.093 83.7718 122.455 84.015 122.817 84.2582C123.18 84.5013 123.542 84.8661 123.904 85.2308C124.267 85.5956 124.508 85.9603 124.87 86.3251C125.233 86.6898 125.353 87.1762 125.595 87.5409C125.716 88.0273 125.957 88.392 125.957 88.8784C125.957 89.3647 126.078 89.8511 126.078 90.3374C126.078 92.2827 125.353 94.1065 123.904 95.4439V95.3224ZM149.748 109.548C148.419 111.736 146.004 112.952 143.589 112.952C142.26 112.952 140.932 112.587 139.724 111.858C136.343 109.791 135.256 105.292 137.43 101.766C139.483 98.362 143.951 97.2677 147.453 99.4563C150.835 101.645 151.922 106.143 149.748 109.548ZM173.538 126.448C172.21 127.785 170.278 128.515 168.345 128.515C167.862 128.515 167.379 128.515 166.896 128.393C166.413 128.393 165.93 128.15 165.568 128.029C165.085 127.907 164.723 127.664 164.36 127.299C163.998 127.056 163.636 126.691 163.273 126.448C161.945 125.111 161.1 123.165 161.1 121.22C161.1 120.734 161.1 120.247 161.22 119.761C161.22 119.275 161.462 118.788 161.583 118.423C161.824 117.937 161.945 117.572 162.307 117.208C162.549 116.843 162.911 116.478 163.273 116.113C163.636 115.749 163.998 115.505 164.36 115.141C164.723 114.776 165.206 114.654 165.568 114.411C166.051 114.29 166.413 114.046 166.896 114.046C167.862 113.925 168.829 113.925 169.674 114.046C170.157 114.046 170.64 114.29 171.002 114.411C171.485 114.533 171.848 114.776 172.21 115.141C172.572 115.384 172.935 115.749 173.297 116.113C173.659 116.478 173.901 116.843 174.263 117.208C174.504 117.572 174.746 118.059 174.988 118.423C175.108 118.91 175.35 119.396 175.35 119.761C175.35 120.247 175.471 120.734 175.471 121.22C175.471 123.165 174.625 124.989 173.297 126.448H173.538ZM278.483 38.5423C277.154 37.2049 276.43 35.2595 276.43 33.4358C276.43 32.9494 276.43 32.4631 276.55 31.9767C276.55 31.4904 276.792 31.0041 276.913 30.6393C277.033 30.153 277.275 29.7882 277.637 29.4235C277.879 29.0587 278.241 28.6939 278.483 28.3292C280.173 26.627 282.709 25.8975 285.004 26.3838C285.487 26.3838 285.97 26.627 286.332 26.7486C286.815 26.9918 287.178 27.1133 287.54 27.4781C287.902 27.7213 288.264 28.086 288.627 28.4508C288.989 28.8155 289.231 29.1803 289.593 29.545C289.834 29.9098 290.076 30.3961 290.317 30.7609C290.438 31.2472 290.68 31.612 290.68 32.0983C290.68 32.5847 290.801 33.071 290.801 33.5573C290.801 35.5027 290.076 37.3265 288.627 38.6639C288.264 39.0286 287.902 39.2718 287.54 39.6366C287.178 39.8797 286.695 40.1229 286.332 40.3661C285.849 40.4877 285.366 40.7308 285.004 40.7308C284.521 40.7308 284.038 40.8524 283.555 40.8524C283.072 40.8524 282.589 40.8524 282.105 40.7308C281.622 40.7308 281.139 40.4877 280.777 40.3661C280.294 40.1229 279.932 40.0013 279.569 39.6366C279.207 39.3934 278.845 39.0286 278.483 38.6639V38.5423ZM280.656 55.9289C279.932 52.0382 282.468 48.1475 286.332 47.418C290.197 46.6885 294.061 49.2418 294.786 53.1325C295.51 57.1448 292.974 60.9139 289.11 61.765C288.627 61.765 288.144 61.8866 287.661 61.8866C284.279 61.8866 281.26 59.4549 280.536 55.9289H280.656ZM297.08 80.9754C297.08 80.9754 296.356 81.5833 295.993 81.8265C295.631 82.0696 295.148 82.3128 294.786 82.556C294.303 82.7991 293.94 82.9207 293.457 82.9207C292.974 82.9207 292.491 83.0423 292.008 83.0423C291.525 83.0423 291.042 83.0423 290.559 82.9207C290.076 82.9207 289.593 82.6776 289.231 82.556C288.748 82.4344 288.385 82.1912 288.023 81.8265C287.661 81.5833 287.298 81.2185 286.936 80.9754C285.608 79.6379 284.762 77.6926 284.762 75.7472C284.762 75.2609 284.762 74.7746 284.883 74.2882C284.883 73.8019 285.125 73.3155 285.245 72.9508C285.487 72.4644 285.608 72.0997 285.97 71.7349C286.211 71.3702 286.574 71.0054 286.936 70.6407C287.298 70.2759 287.661 70.0327 288.023 69.668C288.385 69.4248 288.868 69.1817 289.231 68.9385C289.714 68.8169 290.076 68.5737 290.559 68.5737C291.525 68.4521 292.491 68.4521 293.337 68.5737C293.82 68.5737 294.303 68.8169 294.665 68.9385C295.148 69.0601 295.51 69.3032 295.873 69.668C296.235 69.9112 296.597 70.2759 296.96 70.6407C297.322 71.0054 297.563 71.3702 297.926 71.7349C298.167 72.0997 298.409 72.586 298.65 72.9508C298.771 73.4371 299.012 73.9235 299.012 74.2882C299.012 74.7746 299.133 75.2609 299.133 75.7472C299.133 77.6926 298.288 79.5163 296.96 80.9754H297.08ZM404.198 77.2062C404.198 77.2062 403.957 78.1789 403.836 78.5437C403.715 78.9084 403.474 79.3948 403.111 79.7595C402.87 80.1243 402.508 80.489 402.145 80.8538C401.783 81.2185 401.421 81.4617 401.058 81.7049C400.696 81.948 400.213 82.1912 399.851 82.4344C399.368 82.6776 398.885 82.7991 398.522 82.7991C398.039 82.7991 397.556 82.9207 397.073 82.9207C396.59 82.9207 396.107 82.9207 395.624 82.7991C395.141 82.7991 394.658 82.556 394.296 82.4344C393.812 82.3128 393.45 82.0696 393.088 81.7049C392.726 81.4617 392.363 81.097 392.001 80.8538C390.673 79.5164 389.948 77.571 389.948 75.6256C389.948 75.1393 389.948 74.653 390.069 74.1666C390.069 73.6803 390.31 73.1939 390.431 72.8292C390.552 72.3428 390.793 71.9781 391.156 71.6133C391.397 71.2486 391.759 70.8838 392.001 70.5191C393.692 68.8169 396.228 68.0874 398.522 68.5737C399.005 68.5737 399.488 68.8169 399.851 68.9385C400.334 69.0601 400.696 69.3032 401.058 69.668C401.421 69.9112 401.783 70.2759 402.145 70.6407C402.508 71.0054 402.749 71.3702 403.111 71.7349C403.353 72.0997 403.594 72.586 403.836 72.9508C403.957 73.4371 404.198 73.9235 404.198 74.2882C404.198 74.7746 404.319 75.2609 404.319 75.7472C404.319 76.2336 404.319 76.7199 404.198 77.2062ZM408.304 55.9289C407.58 59.4549 404.561 61.8866 401.179 61.8866C400.696 61.8866 400.213 61.8866 399.73 61.765C395.745 61.0355 393.209 57.1448 394.054 53.1325C394.779 49.2418 398.643 46.5669 402.628 47.418C406.493 48.1475 409.15 52.0382 408.304 55.9289ZM410.478 38.5423C410.478 38.5423 409.753 39.1502 409.391 39.515C409.029 39.7582 408.546 40.0013 408.183 40.2445C407.7 40.3661 407.338 40.6092 406.855 40.6092C406.372 40.6092 405.889 40.7308 405.406 40.7308C404.923 40.7308 404.44 40.7308 403.957 40.6092C403.474 40.6092 402.991 40.3661 402.628 40.2445C402.145 40.0013 401.783 39.8797 401.421 39.515C401.058 39.2718 400.696 38.9071 400.334 38.5423C399.005 37.2049 398.16 35.2595 398.16 33.4358C398.16 32.9494 398.16 32.4631 398.281 31.9767C398.281 31.4904 398.522 31.0041 398.643 30.6393C398.764 30.153 399.005 29.7882 399.247 29.4235C399.488 29.0587 399.851 28.6939 400.213 28.3292C401.541 26.9918 403.474 26.1407 405.406 26.1407C407.338 26.1407 409.15 26.9918 410.478 28.3292C410.84 28.6939 411.082 29.0587 411.444 29.4235C411.686 29.7882 411.927 30.2745 412.169 30.6393C412.289 31.1256 412.531 31.4904 412.531 31.9767C412.531 32.4631 412.652 32.9494 412.652 33.4358C412.652 35.3811 411.927 37.2049 410.478 38.5423ZM525.687 126.448C525.687 126.448 524.963 127.056 524.6 127.299C524.238 127.542 523.755 127.785 523.393 128.029C522.91 128.15 522.427 128.393 522.064 128.393C521.581 128.393 521.098 128.515 520.615 128.515C520.132 128.515 519.649 128.515 519.166 128.393C518.683 128.393 518.2 128.15 517.837 128.029C517.475 127.907 516.992 127.664 516.63 127.299C516.268 127.056 515.784 126.691 515.543 126.448C514.214 125.111 513.49 123.165 513.49 121.22C513.49 120.734 513.49 120.247 513.611 119.761C513.611 119.275 513.852 118.788 513.973 118.423C514.094 117.937 514.335 117.572 514.698 117.208C514.939 116.843 515.301 116.478 515.543 116.113C516.871 114.776 518.804 113.925 520.736 113.925C522.668 113.925 524.479 114.654 525.808 116.113C526.17 116.478 526.412 116.843 526.774 117.208C527.016 117.572 527.257 118.059 527.499 118.423C527.619 118.91 527.861 119.396 527.861 119.761C527.861 120.247 527.982 120.734 527.982 121.22C527.982 123.165 527.257 124.989 525.808 126.448H525.687ZM549.236 111.858C548.029 112.587 546.7 112.952 545.372 112.952C542.956 112.952 540.541 111.736 539.213 109.548C537.039 106.143 538.126 101.645 541.507 99.4563C544.889 97.3893 549.357 98.362 551.531 101.766C553.584 105.171 552.618 109.669 549.236 111.858ZM575.442 95.3224C574.114 96.6598 572.181 97.5109 570.37 97.5109C569.887 97.5109 569.404 97.5109 568.921 97.3893C568.438 97.3893 567.955 97.1461 567.592 97.0246C567.109 96.7814 566.747 96.6598 566.385 96.295C566.022 96.0519 565.66 95.6871 565.298 95.3224C563.969 93.9849 563.124 92.0396 563.124 90.2158C563.124 89.7295 563.124 89.2431 563.245 88.7568C563.245 88.2705 563.486 87.7841 563.607 87.4194C563.849 86.933 563.969 86.5683 564.332 86.2035C564.573 85.8388 564.936 85.474 565.298 85.1093C565.66 84.7445 566.022 84.5013 566.385 84.1366C566.747 83.8934 567.23 83.6502 567.592 83.5286C568.075 83.2855 568.558 83.1639 568.921 83.0423C571.336 82.556 573.751 83.4071 575.442 84.9877C575.804 85.3524 576.046 85.7172 576.408 86.0819C576.65 86.4467 576.891 86.933 577.012 87.2978C577.253 87.7841 577.374 88.1489 577.495 88.6352C577.495 89.1215 577.616 89.6079 577.616 90.0942C577.616 92.0396 576.77 93.8633 575.442 95.2008V95.3224ZM595.851 220.433C595.851 220.433 595.61 221.406 595.489 221.77C595.368 222.257 595.127 222.622 594.764 222.986C594.523 223.351 594.161 223.716 593.919 224.081C593.677 224.445 593.194 224.688 592.832 225.053C592.47 225.418 591.987 225.54 591.624 225.783C591.141 225.904 590.779 226.148 590.296 226.148C589.813 226.148 589.33 226.269 588.847 226.269C588.364 226.269 587.881 226.269 587.398 226.148C586.915 226.148 586.432 225.904 586.069 225.783C585.586 225.661 585.224 225.418 584.862 225.053C584.499 224.688 584.137 224.445 583.775 224.081C583.412 223.716 583.171 223.351 582.809 222.986C582.567 222.622 582.326 222.135 582.084 221.77C581.963 221.284 581.722 220.798 581.722 220.433C581.722 219.947 581.601 219.46 581.601 218.974C581.601 217.029 582.326 215.205 583.775 213.746C585.224 212.287 587.035 211.557 588.847 211.557C590.658 211.557 592.591 212.408 594.04 213.746C595.368 215.083 596.214 217.029 596.214 218.974C596.214 219.46 596.214 219.947 596.093 220.433H595.851ZM617.951 226.391C613.966 226.391 610.705 223.108 610.705 219.096C610.705 215.083 613.966 211.801 617.951 211.801C621.936 211.801 625.197 215.083 625.197 219.096C625.197 223.108 621.936 226.391 617.951 226.391ZM654.18 220.433C654.18 220.433 653.939 221.406 653.818 221.77C653.697 222.257 653.456 222.622 653.094 222.986C652.852 223.351 652.49 223.716 652.127 224.081C651.765 224.445 651.403 224.688 651.04 225.053C650.678 225.296 650.195 225.54 649.833 225.783C649.35 225.904 648.867 226.148 648.504 226.148C648.021 226.148 647.538 226.269 647.055 226.269C646.572 226.269 646.089 226.269 645.606 226.148C645.123 226.148 644.64 225.904 644.278 225.783C643.915 225.661 643.432 225.418 643.07 225.053C642.708 224.81 642.345 224.445 641.983 224.081C641.621 223.716 641.379 223.351 641.017 222.986C640.776 222.622 640.534 222.135 640.292 221.77C640.172 221.284 639.93 220.798 639.93 220.433C639.93 219.947 639.809 219.46 639.809 218.974C639.809 217.029 640.534 215.205 641.983 213.746C642.345 213.381 642.708 213.138 643.07 212.895C643.432 212.652 643.915 212.408 644.278 212.165C644.761 211.922 645.123 211.801 645.606 211.801C646.572 211.557 647.538 211.557 648.384 211.801C648.867 211.801 649.35 212.044 649.712 212.165C650.195 212.287 650.557 212.53 650.92 212.895C651.282 213.138 651.644 213.503 652.007 213.746C653.335 215.083 654.18 217.029 654.18 218.974C654.18 219.46 654.18 219.947 654.06 220.433H654.18Z" fill="#E22A00"/>
</g>
<defs>
<clipPath id="clip0_32_166">
<rect width="4127" height="356" fill="white"/>
</clipPath>
</defs>
</svg>
