<svg width="1095" height="1095" viewBox="0 0 1095 1095" fill="none" xmlns="http://www.w3.org/2000/svg">
<g clip-path="url(#clip0_32_322)">
<path d="M1095 0H0V1095H1095V0Z" fill="#131A12"/>
<path d="M875.418 398.466C887.829 313.943 818.287 270.899 795.926 262.178C751.205 177.655 642.98 182.239 614.582 200.016C583.5 177.655 564.829 177.879 547.5 177.879C530.17 177.879 511.499 177.655 480.418 200.016C452.02 182.127 343.794 177.655 299.073 262.178C276.713 270.899 207.171 313.943 219.581 398.466C177.32 414.231 183.133 480.418 204.711 509.487H890.4C911.978 480.53 917.68 414.231 875.53 398.466H875.418ZM239.147 404.727C239.147 404.727 238.923 405.622 238.699 406.181C238.476 406.628 238.252 407.075 238.029 407.522C237.693 407.97 237.47 408.305 237.134 408.64C236.799 408.976 236.352 409.311 236.016 409.535C235.569 409.759 235.122 410.094 234.675 410.206C234.227 410.429 233.78 410.541 233.221 410.653C232.774 410.653 232.215 410.765 231.768 410.765C231.32 410.765 230.761 410.765 230.314 410.653C229.867 410.653 229.42 410.429 228.861 410.206C228.414 409.982 227.966 409.759 227.519 409.535C227.072 409.311 226.737 408.976 226.401 408.64C226.066 408.305 225.73 407.97 225.507 407.522C225.283 407.075 225.06 406.628 224.836 406.181C224.612 405.734 224.5 405.286 224.389 404.727C224.389 404.28 224.277 403.721 224.277 403.274C224.277 401.261 225.06 399.361 226.513 397.907C228.302 396.119 230.873 395.336 233.333 395.895C233.78 395.895 234.339 396.119 234.786 396.342C235.234 396.566 235.681 396.789 236.128 397.013C236.575 397.237 236.911 397.572 237.246 397.907C238.588 399.361 239.482 401.261 239.482 403.274C239.482 403.721 239.482 404.28 239.37 404.727H239.147ZM262.178 410.877C258.041 410.877 254.576 407.522 254.576 403.274C254.576 399.025 257.93 395.671 262.178 395.671C266.427 395.671 269.781 399.025 269.781 403.274C269.781 407.522 266.427 410.877 262.178 410.877ZM299.968 404.727C299.968 404.727 299.744 405.622 299.52 406.181C299.297 406.628 299.073 407.075 298.85 407.522C298.626 407.97 298.291 408.305 297.955 408.64C297.62 408.976 297.284 409.311 296.837 409.535C296.502 409.759 295.943 410.094 295.495 410.206C295.048 410.429 294.601 410.541 294.042 410.653C293.595 410.653 293.036 410.765 292.589 410.765C292.141 410.765 291.582 410.765 291.135 410.653C290.688 410.653 290.129 410.429 289.682 410.206C289.235 409.982 288.787 409.759 288.34 409.535C287.893 409.311 287.557 408.976 287.222 408.64C286.887 408.305 286.551 407.97 286.328 407.522C286.104 407.075 285.769 406.628 285.657 406.181C285.433 405.734 285.321 405.286 285.21 404.727C285.21 404.28 285.098 403.721 285.098 403.274C285.098 401.261 285.88 399.361 287.334 397.907C287.669 397.572 288.005 397.237 288.452 397.013C288.899 396.678 289.346 396.454 289.794 396.342C290.241 396.119 290.688 396.007 291.247 395.895C293.707 395.448 296.278 396.23 298.067 397.907C299.52 399.361 300.303 401.261 300.303 403.274C300.303 403.721 300.303 404.28 300.191 404.727H299.968ZM317.297 275.036C317.297 275.036 316.626 275.707 316.179 275.93C315.732 276.154 315.285 276.377 314.837 276.601C314.39 276.825 313.943 276.936 313.384 277.048C312.937 277.048 312.378 277.16 311.931 277.16C309.918 277.16 308.017 276.377 306.564 274.924C305.111 273.47 304.328 271.57 304.328 269.557C304.328 269.11 304.328 268.551 304.44 268.104C304.44 267.657 304.663 267.098 304.887 266.651C305.111 266.203 305.334 265.756 305.558 265.309C305.781 264.862 306.117 264.526 306.452 264.191C308.241 262.402 310.813 261.619 313.272 262.067C313.719 262.067 314.278 262.29 314.726 262.514C315.173 262.737 315.62 262.961 316.067 263.185C316.514 263.52 316.85 263.744 317.185 264.079C317.521 264.414 317.856 264.862 318.08 265.197C318.303 265.532 318.639 266.091 318.751 266.539C318.974 266.986 319.086 267.433 319.198 267.992C319.198 268.439 319.31 268.998 319.31 269.446C319.31 271.458 318.527 273.359 317.074 274.812L317.297 275.036ZM344.242 289.906C342.788 292.253 340.329 293.483 337.757 293.483C336.415 293.483 334.962 293.148 333.732 292.365C330.154 290.129 329.148 285.545 331.272 281.968C333.509 278.39 338.092 277.384 341.67 279.508C345.248 281.744 346.254 286.44 344.13 289.906H344.242ZM369.062 307.347C367.608 308.688 365.708 309.583 363.695 309.583C363.248 309.583 362.689 309.583 362.242 309.471C361.795 309.471 361.236 309.247 360.789 309.024C360.341 308.8 359.894 308.577 359.447 308.353C359 308.129 358.664 307.794 358.329 307.459C356.875 306.005 356.093 304.105 356.093 302.092C356.093 301.645 356.093 301.086 356.205 300.639C356.205 300.191 356.428 299.744 356.652 299.185C356.875 298.738 357.099 298.291 357.323 297.844C357.658 297.396 357.882 297.061 358.217 296.726C358.552 296.39 359 296.055 359.335 295.831C359.67 295.608 360.229 295.272 360.677 295.16C361.124 294.937 361.571 294.825 362.018 294.713C363.025 294.489 364.031 294.489 364.925 294.713C365.372 294.713 365.931 294.937 366.379 295.16C366.826 295.384 367.273 295.608 367.72 295.831C368.168 296.055 368.503 296.39 368.838 296.726C369.174 297.061 369.509 297.508 369.733 297.844C369.956 298.291 370.18 298.738 370.404 299.185C370.627 299.632 370.739 300.08 370.851 300.639C370.851 301.086 370.963 301.645 370.963 302.092C370.963 304.105 370.18 306.005 368.727 307.459L369.062 307.347ZM478.629 216.227C477.176 214.774 476.393 212.873 476.393 210.861C476.393 210.414 476.393 209.854 476.505 209.407C476.505 208.96 476.728 208.401 476.952 207.954C477.176 207.507 477.399 207.059 477.623 206.612C477.846 206.165 478.182 205.83 478.517 205.494C480.306 203.705 482.878 202.923 485.337 203.37C485.784 203.37 486.232 203.594 486.791 203.817C487.238 204.041 487.685 204.264 488.132 204.488C488.579 204.823 488.915 205.047 489.25 205.382C489.586 205.718 489.921 206.165 490.145 206.5C490.368 206.948 490.704 207.395 490.816 207.842C491.039 208.289 491.151 208.736 491.263 209.295C491.263 209.743 491.375 210.302 491.375 210.749C491.375 212.761 490.592 214.662 489.139 216.115C488.803 216.451 488.356 216.786 488.021 217.01C487.573 217.234 487.126 217.457 486.679 217.681C486.232 217.904 485.784 218.016 485.225 218.128C484.778 218.128 484.219 218.24 483.772 218.24C483.325 218.24 482.766 218.24 482.319 218.128C481.871 218.128 481.312 217.904 480.865 217.681C480.418 217.457 479.971 217.234 479.523 217.01C479.076 216.674 478.741 216.451 478.405 216.115L478.629 216.227ZM480.865 234.339C480.082 230.203 482.766 226.29 486.791 225.507C490.927 224.724 494.84 227.408 495.623 231.433C496.406 235.569 493.722 239.482 489.698 240.377C489.25 240.377 488.691 240.489 488.244 240.489C484.666 240.489 481.536 238.029 480.865 234.339ZM497.971 260.166C497.971 260.166 497.188 260.837 496.853 261.06C496.406 261.396 495.958 261.619 495.511 261.731C495.064 261.955 494.617 262.067 494.058 262.178C493.611 262.178 493.052 262.29 492.604 262.29C492.157 262.29 491.598 262.29 491.151 262.178C490.704 262.178 490.257 261.955 489.698 261.731C489.25 261.508 488.803 261.284 488.356 261.06C487.909 260.837 487.573 260.501 487.238 260.166C485.784 258.712 485.002 256.812 485.002 254.799C485.002 254.352 485.002 253.793 485.114 253.346C485.114 252.899 485.337 252.452 485.561 251.892C485.784 251.445 486.008 250.998 486.232 250.551C486.567 250.104 486.791 249.768 487.126 249.433C487.461 249.097 487.909 248.762 488.244 248.538C488.691 248.315 489.139 247.979 489.586 247.868C490.033 247.644 490.48 247.532 491.039 247.42C492.045 247.197 493.052 247.197 493.946 247.42C494.393 247.42 494.952 247.644 495.4 247.868C495.847 248.091 496.294 248.315 496.741 248.538C497.188 248.762 497.524 249.097 497.859 249.433C498.195 249.768 498.53 250.215 498.754 250.551C498.977 250.998 499.201 251.445 499.424 251.892C499.648 252.34 499.76 252.787 499.872 253.346C499.872 253.793 499.983 254.352 499.983 254.799C499.983 256.812 499.201 258.712 497.747 260.166H497.971ZM609.774 256.253C609.774 256.253 609.551 257.259 609.327 257.706C609.103 258.153 608.88 258.601 608.656 259.048C608.432 259.495 608.097 259.831 607.762 260.166C607.426 260.501 606.979 260.837 606.644 261.06C606.196 261.396 605.749 261.619 605.302 261.731C604.855 261.955 604.408 262.067 603.849 262.178C603.401 262.178 602.842 262.29 602.395 262.29C601.948 262.29 601.389 262.29 600.942 262.178C600.494 262.178 599.935 261.955 599.488 261.731C599.041 261.508 598.594 261.284 598.147 261.06C597.699 260.837 597.364 260.501 597.029 260.166C595.687 258.712 594.792 256.812 594.792 254.799C594.792 254.352 594.792 253.793 594.904 253.346C594.904 252.899 595.128 252.452 595.352 251.892C595.575 251.445 595.799 250.998 596.022 250.551C596.246 250.104 596.581 249.768 596.917 249.433C598.706 247.644 601.277 246.861 603.737 247.309C604.184 247.309 604.631 247.532 605.19 247.756C605.637 247.979 606.085 248.203 606.532 248.427C606.979 248.65 607.314 248.986 607.65 249.321C607.985 249.656 608.321 250.104 608.544 250.439C608.768 250.886 609.103 251.333 609.215 251.781C609.439 252.228 609.55 252.675 609.662 253.234C609.662 253.681 609.774 254.24 609.774 254.688C609.774 255.135 609.774 255.694 609.662 256.141L609.774 256.253ZM614.134 234.339C613.464 237.917 610.221 240.489 606.755 240.489C606.308 240.489 605.749 240.489 605.302 240.377C601.165 239.594 598.482 235.569 599.376 231.433C600.159 227.296 604.184 224.724 608.321 225.507C612.457 226.29 615.029 230.314 614.246 234.339H614.134ZM616.371 216.227C616.371 216.227 615.588 216.898 615.252 217.122C614.805 217.345 614.358 217.569 613.911 217.793C613.464 218.016 613.016 218.128 612.457 218.24C612.01 218.24 611.451 218.352 611.004 218.352C610.557 218.352 609.998 218.352 609.551 218.24C609.103 218.24 608.544 218.016 608.097 217.793C607.65 217.569 607.203 217.345 606.755 217.122C606.308 216.786 605.973 216.563 605.637 216.227C604.296 214.774 603.401 212.873 603.401 210.861C603.401 210.414 603.401 209.854 603.513 209.407C603.513 208.96 603.737 208.401 603.96 207.954C604.184 207.507 604.408 207.059 604.631 206.612C604.967 206.165 605.19 205.83 605.526 205.494C606.979 204.153 608.88 203.258 610.892 203.258C612.905 203.258 614.805 204.041 616.259 205.494C616.594 205.83 616.93 206.277 617.153 206.612C617.377 207.059 617.6 207.507 617.824 207.954C618.048 208.401 618.159 208.848 618.271 209.407C618.271 209.854 618.383 210.414 618.383 210.861C618.383 212.873 617.6 214.774 616.147 216.227H616.371ZM736.559 307.347C736.559 307.347 735.888 308.018 735.441 308.241C734.994 308.577 734.546 308.8 734.099 308.912C733.652 309.136 733.205 309.248 732.646 309.359C732.199 309.359 731.64 309.471 731.192 309.471C730.745 309.471 730.186 309.471 729.739 309.359C729.292 309.359 728.733 309.136 728.285 308.912C727.838 308.688 727.391 308.465 726.944 308.241C726.497 308.018 726.161 307.682 725.826 307.347C724.484 305.893 723.59 303.993 723.59 301.98C723.59 301.533 723.59 300.974 723.702 300.527C723.702 300.08 723.925 299.632 724.149 299.073C724.372 298.626 724.596 298.179 724.82 297.732C725.043 297.285 725.379 296.949 725.714 296.614C727.167 295.16 729.068 294.378 731.081 294.378C733.093 294.378 734.994 295.16 736.447 296.614C736.783 296.949 737.118 297.396 737.341 297.732C737.565 298.179 737.901 298.626 738.012 299.073C738.236 299.521 738.348 299.968 738.46 300.527C738.46 300.974 738.571 301.533 738.571 301.98C738.571 303.993 737.789 305.893 736.335 307.347H736.559ZM761.156 292.253C759.926 293.036 758.472 293.371 757.131 293.371C754.559 293.371 752.099 292.142 750.646 289.794C748.41 286.216 749.528 281.52 753.106 279.396C756.683 277.16 761.379 278.278 763.503 281.856C765.74 285.433 764.621 290.129 761.044 292.253H761.156ZM788.435 275.036C786.982 276.489 785.081 277.272 783.069 277.272C782.51 277.272 782.063 277.272 781.616 277.16C781.168 277.16 780.721 276.936 780.162 276.713C779.715 276.489 779.268 276.266 778.82 276.042C778.373 275.707 778.038 275.483 777.702 275.148C776.249 273.694 775.466 271.793 775.466 269.781C775.466 269.334 775.466 268.775 775.578 268.328C775.578 267.88 775.802 267.321 776.025 266.874C776.249 266.427 776.473 265.98 776.696 265.532C777.032 265.085 777.255 264.75 777.591 264.414C777.926 264.079 778.373 263.744 778.709 263.52C779.156 263.296 779.603 263.073 780.05 262.849C780.497 262.626 780.945 262.514 781.504 262.402C783.963 261.955 786.535 262.737 788.324 264.526C788.659 264.862 788.995 265.309 789.218 265.644C789.442 266.091 789.665 266.539 789.889 266.986C790.113 267.433 790.224 267.88 790.336 268.439C790.336 268.887 790.448 269.446 790.448 269.893C790.448 271.905 789.665 273.806 788.212 275.259L788.435 275.036ZM809.79 404.727C809.79 404.727 809.566 405.622 809.343 406.181C809.119 406.628 808.896 407.075 808.672 407.522C808.448 407.97 808.113 408.305 807.777 408.64C807.442 408.976 806.995 409.311 806.659 409.535C806.324 409.759 805.765 410.094 805.318 410.206C804.871 410.429 804.423 410.541 803.864 410.653C803.305 410.765 802.858 410.765 802.411 410.765C801.964 410.765 801.405 410.765 800.957 410.653C800.51 410.653 800.063 410.429 799.504 410.206C799.057 409.982 798.61 409.759 798.162 409.535C797.715 409.311 797.38 408.976 797.044 408.64C796.709 408.305 796.374 407.97 796.15 407.522C795.926 407.075 795.591 406.628 795.479 406.181C795.256 405.734 795.144 405.286 795.032 404.727C795.032 404.28 794.92 403.721 794.92 403.274C794.92 401.261 795.703 399.361 797.156 397.907C798.61 396.454 800.51 395.671 802.523 395.671C804.535 395.671 806.436 396.454 807.889 397.907C809.343 399.361 810.125 401.261 810.125 403.274C810.125 403.721 810.125 404.28 810.013 404.727H809.79ZM832.821 410.877C828.685 410.877 825.219 407.522 825.219 403.274C825.219 399.025 828.573 395.671 832.821 395.671C837.07 395.671 840.424 399.025 840.424 403.274C840.424 407.522 837.07 410.877 832.821 410.877ZM870.611 404.727C870.611 404.727 870.387 405.622 870.164 406.181C869.94 406.628 869.716 407.075 869.493 407.522C869.269 407.97 868.934 408.305 868.598 408.64C868.263 408.976 867.927 409.311 867.48 409.535C867.033 409.759 866.586 410.094 866.139 410.206C865.692 410.429 865.244 410.541 864.685 410.653C864.238 410.653 863.679 410.765 863.232 410.765C862.785 410.765 862.226 410.765 861.778 410.653C861.331 410.653 860.772 410.429 860.325 410.206C859.878 409.982 859.431 409.759 858.983 409.535C858.536 409.311 858.201 408.976 857.865 408.64C857.53 408.305 857.194 407.97 856.971 407.522C856.747 407.075 856.412 406.628 856.3 406.181C856.076 405.734 855.965 405.286 855.853 404.727C855.853 404.28 855.741 403.721 855.741 403.274C855.741 401.261 856.524 399.361 857.977 397.907C858.312 397.572 858.648 397.237 859.095 397.013C859.542 396.678 859.99 396.454 860.437 396.342C860.884 396.119 861.331 396.007 861.89 395.895C862.896 395.671 863.903 395.671 864.797 395.895C865.244 395.895 865.803 396.119 866.251 396.342C866.698 396.566 867.145 396.789 867.592 397.013C868.039 397.237 868.375 397.572 868.71 397.907C870.164 399.361 870.946 401.261 870.946 403.274C870.946 403.721 870.946 404.28 870.834 404.727H870.611Z" fill="#FFF7F7"/>
<path d="M193.755 702.683C192.86 698.77 195.543 694.409 199.68 692.956C211.755 688.596 225.619 678.869 232.998 669.477C235.681 666.011 240.377 665.117 243.842 667.688C247.644 670.372 248.762 675.626 245.967 679.204C236.911 691.055 218.91 703.354 203.034 708.608C198.898 710.062 194.537 707.155 193.643 702.683H193.755ZM238.476 707.378C238.476 703.018 242.277 699.776 246.638 700.335C281.855 703.577 285.992 685.577 273.694 670.372C264.191 658.297 235.681 657.067 246.638 624.868C248.091 620.507 252.787 618.16 257.259 619.501C261.172 620.731 263.408 625.091 262.178 629.452C254.464 652.93 277.16 640.632 291.582 668.806C304.44 699.776 285.321 719.9 246.302 716.435C241.83 716.099 238.364 712.074 238.588 707.378H238.476ZM279.284 613.128C273.47 603.961 263.743 596.134 253.681 592.78C249.321 591.103 247.197 586.855 248.65 582.83C250.439 578.358 255.135 575.786 259.607 577.463C272.799 582.159 285.21 592.221 292.589 603.961C294.936 607.762 293.707 613.017 289.905 615.7C286.439 618.048 281.744 616.93 279.284 613.128ZM329.484 701.788C325.012 687.925 315.732 678.757 302.204 674.732C298.067 673.502 295.384 669.142 296.39 665.117C297.62 660.421 302.315 657.738 306.676 658.968C325.571 664.222 339.546 678.086 345.471 697.875C346.925 702.236 344.018 706.708 339.546 707.826C335.186 708.72 330.937 706.037 329.484 701.677V701.788Z" fill="#FFF7F7"/>
<path d="M462.194 717.217C438.604 661.539 418.367 661.092 418.367 642.421C418.367 627.775 440.504 619.501 458.728 578.358C460.517 574.221 465.436 572.208 469.573 574.221C473.71 576.01 475.722 581.041 473.933 585.178C463.424 608.768 453.138 620.731 441.063 633.924C432.231 643.874 432.454 643.651 441.622 653.713C455.486 668.695 467.449 684.347 477.735 710.733C479.412 715.093 477.176 719.9 473.039 721.689C468.679 723.478 463.871 721.354 462.194 717.217Z" fill="#FFF7F7"/>
<path d="M654.719 720.012C643.874 719.453 635.824 715.876 629.787 709.391C626.88 706.149 627.439 701.229 630.905 698.211C633.812 695.639 638.284 695.863 641.526 698.546C658.073 712.074 684.682 699.999 681.44 680.881C677.08 655.837 647.005 649.688 614.134 666.794C614.358 679.092 613.799 691.502 612.681 703.242C610.668 718.782 600.83 723.478 584.059 716.993C565.165 709.055 551.413 697.652 577.016 674.397C584.059 668.136 591.215 662.657 598.482 658.185C598.258 647.676 597.811 637.613 596.805 628.11C586.519 629.899 576.01 631.129 565.276 631.688C560.916 631.911 557.338 628.445 557.338 624.085C557.115 619.948 560.581 616.371 564.717 616.147C575.227 615.588 585.513 614.47 595.016 612.569C593.563 602.06 591.774 592.78 589.761 585.178C588.643 581.041 590.991 576.904 595.128 575.786C599.265 574.892 603.737 577.24 604.855 581.6C606.867 588.979 608.656 598.594 610.109 609.215C616.035 607.538 621.625 605.749 626.88 603.625C630.793 601.948 635.377 603.849 637.166 607.538C638.955 611.451 637.166 616.035 633.141 617.601C626.433 620.284 619.277 622.632 611.898 624.644C612.569 632.806 613.352 641.415 613.687 650.247C631.911 642.309 650.247 640.185 666.346 644.433C713.639 657.291 703.689 722.696 654.607 720.012H654.719ZM597.588 699.329C597.923 694.633 598.258 684.906 598.482 676.633C592.333 680.993 587.078 685.465 582.941 689.825C576.68 696.086 578.022 697.204 582.606 699.44C598.258 707.602 597.029 707.043 597.588 699.44V699.329ZM702.906 636.495C700.335 639.961 695.639 640.408 692.285 637.949C683.117 631.464 671.378 627.439 658.744 626.433C654.607 626.098 651.365 622.52 651.477 618.271C651.812 613.911 655.613 610.557 659.974 610.892C675.514 612.01 690.272 617.153 701.229 625.315C704.807 627.886 705.366 632.918 702.906 636.495Z" fill="#FFF7F7"/>
<path d="M850.934 639.961C849.48 658.856 845.12 679.875 842.66 688.707C835.393 713.751 818.623 720.236 793.802 707.602C790.001 705.59 788.548 700.782 790.784 696.757C792.796 692.956 797.492 691.502 801.405 693.739C824.101 705.813 829.356 697.875 835.728 638.508C836.399 631.8 836.399 619.948 809.008 625.539C800.734 658.409 787.541 692.285 771.442 716.77C769.094 720.348 764.174 721.242 760.597 718.782C757.354 716.211 756.46 711.403 758.808 707.938C774.125 684.682 785.529 656.732 792.908 628.781C785.305 629.899 778.15 630.234 769.094 629.452C764.957 629.228 761.827 625.539 762.274 620.955C762.833 616.818 766.634 613.911 770.883 614.135C780.274 615.029 787.094 614.694 796.709 612.905C798.833 602.06 800.51 591.215 801.628 580.929C801.964 576.792 805.765 573.662 809.902 573.886C814.039 574.221 817.281 578.022 816.946 582.383C816.051 591.215 814.374 600.383 812.473 609.998C850.039 605.079 852.164 628.445 851.046 639.961H850.934ZM900.686 686.807C896.214 688.26 891.518 685.577 890.177 680.993C883.692 657.402 869.94 635.154 856.971 621.29C853.729 617.712 854.064 612.458 857.53 609.551C861.443 606.308 867.033 606.644 870.387 610.445C883.357 625.986 900.015 655.39 906.5 675.515C908.177 679.875 905.382 684.906 900.686 686.695V686.807Z" fill="#FFF7F7"/>
<path d="M604.072 906.835C604.072 912.425 599.6 916.898 594.01 916.898C588.42 916.898 583.836 912.425 583.836 906.835V817.952C583.836 809.455 590.768 802.523 599.265 802.523H644.769C653.266 802.523 660.197 809.455 660.197 817.952V823.318C660.197 828.908 655.502 833.381 650.023 833.381C644.545 833.381 639.961 828.908 639.961 823.318V822.536H604.072V846.014H641.526C647.117 846.014 651.7 850.487 651.7 856.077C651.7 861.667 647.005 866.139 641.526 866.139H604.072V906.723V906.835Z" fill="#FFF7F7"/>
<path d="M709.503 915.332C701.005 915.332 694.074 908.401 694.074 899.903V818.064C694.074 809.567 701.005 802.635 709.503 802.635H756.46C764.957 802.635 771.889 809.567 771.889 818.064V824.101C771.889 829.691 767.193 834.163 761.715 834.163C756.236 834.163 751.652 829.691 751.652 824.101V822.759H714.31V846.238H755.342C760.932 846.238 765.404 850.71 765.404 856.412C765.404 862.114 760.932 866.474 755.342 866.474H714.31V895.431H751.652V894.202C751.652 888.611 756.124 884.139 761.715 884.139C767.305 884.139 771.889 888.611 771.889 894.202V899.903C771.889 908.401 764.957 915.332 756.46 915.332H709.503Z" fill="#FFF7F7"/>
<path d="M834.051 915.556C828.349 915.556 822.871 913.208 819.07 909.407L811.691 902.028C806.995 895.99 805.542 891.854 805.542 887.046V879.444C805.542 873.853 810.014 869.381 815.604 869.381C821.194 869.381 825.778 873.853 825.778 879.444C825.778 879.555 825.666 881.903 825.666 882.127C825.778 888.5 826.449 888.164 831.256 892.972C831.256 893.084 834.834 895.431 836.958 895.431H857.977C860.101 895.431 862.114 894.649 863.567 893.083C864.685 891.965 865.915 891.071 866.81 889.841C868.822 887.493 869.157 886.263 869.157 884.251V880.673C869.157 875.307 866.251 873.965 861.89 872.624L819.629 858.648C813.479 856.636 806.883 852.946 806.883 841.207V831.145C806.883 825.443 809.007 820.188 813.032 816.163L820.747 808.896C824.66 804.871 830.138 802.747 835.952 802.747H859.99C865.58 802.747 871.617 804.871 875.642 808.896L882.909 816.163C886.934 820.188 888.947 824.325 889.058 831.145V837.182C889.058 842.772 884.586 847.244 878.996 847.244C873.406 847.244 868.934 842.772 868.934 837.182V833.94C868.934 831.927 868.039 829.915 866.586 828.349L863.344 825.107C861.778 823.542 859.766 822.759 857.642 822.759C852.275 822.759 843.219 822.648 837.629 822.648C835.616 822.648 834.051 822.983 832.262 824.995C831.592 825.89 830.585 826.672 829.02 828.349C826.337 831.145 827.008 832.822 827.008 836.735C827.008 838.747 828.349 840.424 830.25 841.095L877.766 857.195C884.251 859.319 889.394 866.922 889.394 872.176V887.046C889.394 892.748 887.046 898.003 883.245 902.028L875.866 909.407C871.841 913.32 866.586 915.556 860.996 915.556H834.163H834.051Z" fill="#FFF7F7"/>
<path d="M199.121 798.498C195.32 800.846 190.513 799.169 188.612 795.032C186.935 791.119 188.612 786.2 192.525 783.852C202.252 778.262 213.656 769.206 221.594 761.827C225.731 758.025 232.439 758.025 236.799 762.162C242.166 767.193 247.309 771.33 253.905 775.019C257.483 777.144 259.16 781.504 257.706 785.305C256.253 789.218 251.781 790.895 248.091 788.883C240.153 784.746 235.234 780.945 229.532 775.914C225.172 779.715 220.476 783.516 215.78 787.094H241.048C244.625 787.094 247.532 790.001 247.532 793.579C247.532 797.156 244.625 799.84 241.048 799.84H214.662C211.084 799.84 208.177 796.933 208.177 793.579V792.461C205.159 794.585 202.028 796.597 199.01 798.386L199.121 798.498ZM246.414 902.699H213.544V907.73C213.544 911.755 210.302 915.109 206.165 915.109C202.028 915.109 198.562 911.643 198.562 907.73V818.287C198.562 812.362 203.594 807.33 209.519 807.33H245.072C250.998 807.33 256.029 812.362 256.029 818.287V851.604C256.029 857.53 250.998 862.561 245.072 862.561H213.544V868.375H247.979C251.781 868.375 255.023 871.617 255.023 875.642C255.023 879.667 251.781 882.686 247.979 882.686H213.544V888.611H246.414C250.215 888.611 253.458 891.854 253.458 895.655C253.458 899.456 250.215 902.699 246.414 902.699ZM241.83 820.859H213.544V828.238H241.83V820.859ZM213.544 849.145H241.83V841.766H213.544V849.145ZM348.49 910.078C347.261 913.991 342.677 915.891 339.323 913.879C326.018 906.835 312.937 895.431 301.757 881.903C290.912 894.76 277.272 906.388 260.501 913.879C256.7 915.668 252.228 913.655 250.551 909.519C249.097 905.717 250.886 901.245 254.911 899.456C270.452 892.077 282.862 881.456 292.477 869.493C285.098 858.648 279.172 846.909 275.148 835.169C273.694 831.033 276.042 826.561 280.067 824.884C283.98 823.207 288.34 825.443 289.57 829.356C292.477 838.524 296.614 847.58 301.645 856.077C307.235 846.909 311.372 837.517 314.055 828.461C315.285 824.325 319.645 822.2 323.447 823.542C324.006 823.766 324.676 824.101 325.124 824.436C319.869 818.623 315.173 812.362 311.931 806.772C309.918 803.306 311.26 798.833 314.949 796.821C318.527 794.808 322.887 796.15 325.235 799.504C330.49 807.778 338.093 816.61 344.13 821.641C347.596 824.325 348.826 828.685 347.372 832.263C345.695 836.064 341.111 837.629 337.645 835.281C334.18 832.933 330.937 830.027 327.695 827.008C328.813 828.797 329.148 831.145 328.366 833.492C324.9 844.114 319.198 856.971 310.925 869.158C320.428 881.232 332.055 891.742 344.689 899.233C348.267 901.357 349.944 905.941 348.49 909.742V910.078ZM287.11 796.821C291.024 798.945 292.477 803.529 290.576 807.33C285.21 817.281 277.719 826.113 268.216 833.492C264.75 836.176 259.942 835.281 257.371 831.48C255.247 828.238 256.141 823.542 259.495 820.859C266.762 815.492 272.688 808.001 277.16 800.287C279.172 796.709 283.421 795.032 287.11 796.821ZM265.085 795.927C260.949 795.927 257.483 792.684 257.483 788.324C257.483 783.964 260.949 780.721 265.085 780.721H293.595V764.845C293.595 760.485 297.173 756.907 301.533 756.907C305.893 756.907 309.247 760.485 309.247 764.845V780.721H338.652C342.788 780.721 346.254 784.187 346.254 788.324C346.254 792.461 342.788 795.927 338.652 795.927H265.085Z" fill="#FFF7F7"/>
<path d="M533.301 827.902C537.661 827.902 541.015 831.368 541.015 835.84C541.015 839.977 537.549 843.555 533.301 843.555H472.145V891.518C472.145 909.519 460.741 915.668 431.337 914.214C426.864 913.879 423.622 910.078 423.622 905.717C423.846 901.357 427.535 898.003 431.896 898.115C453.026 899.009 456.269 897.779 456.269 891.406V843.443H394.441C390.081 843.443 386.727 839.977 386.727 835.728C386.727 831.48 390.193 827.79 394.441 827.79H456.269V812.25C456.269 807.89 459.846 804.312 464.207 804.312C465.995 804.312 467.784 804.983 469.238 806.101C480.083 798.833 488.915 790.448 495.623 780.833H416.578C412.218 780.833 408.64 777.367 408.64 772.895C408.64 768.758 412.106 765.181 416.578 765.181H510.046C515.971 765.181 519.996 771.33 517.313 776.585C507.027 795.368 489.027 813.591 472.256 822.759V827.79H533.413L533.301 827.902Z" fill="#FFF7F7"/>
</g>
<defs>
<clipPath id="clip0_32_322">
<rect width="1095" height="1095" fill="white"/>
</clipPath>
</defs>
</svg>
